<svg width="1512" height="925" viewBox="0 0 1512 925" fill="none" xmlns="http://www.w3.org/2000/svg">
<g clip-path="url(#clip0_259_2)">
<rect width="1512" height="925" fill="#470D03"/>
<path d="M1442.89 704.412C1488.51 698.002 1513.39 721.911 1513.39 721.911L1513.39 -19.0888L-1.18192 -19.0877L-1.18194 701.4C-1.18194 701.4 131.101 629.04 244.312 644.402C397.248 665.155 456.126 847.07 610.395 851.912C731.827 855.724 809.487 756.915 930.895 752.412C1039.92 748.369 1076.36 809.299 1185.39 805.412C1319.26 800.64 1355.2 716.738 1442.89 704.412Z" fill="#FFF5EC"/>
<path d="M115.78 776.52L106.72 810H95.38L90.1 788.28L84.64 810H73.36L64.24 776.52H74.5L79.24 800.46L84.88 776.52H95.74L101.44 800.34L106.12 776.52H115.78ZM151.253 792.72C151.253 793.68 151.193 794.68 151.073 795.72H127.853C128.013 797.8 128.673 799.4 129.833 800.52C131.033 801.6 132.493 802.14 134.213 802.14C136.773 802.14 138.553 801.06 139.553 798.9H150.473C149.913 801.1 148.893 803.08 147.413 804.84C145.973 806.6 144.153 807.98 141.953 808.98C139.753 809.98 137.293 810.48 134.573 810.48C131.293 810.48 128.373 809.78 125.813 808.38C123.253 806.98 121.253 804.98 119.813 802.38C118.373 799.78 117.653 796.74 117.653 793.26C117.653 789.78 118.353 786.74 119.753 784.14C121.193 781.54 123.193 779.54 125.753 778.14C128.313 776.74 131.253 776.04 134.573 776.04C137.813 776.04 140.693 776.72 143.213 778.08C145.733 779.44 147.693 781.38 149.093 783.9C150.533 786.42 151.253 789.36 151.253 792.72ZM140.753 790.02C140.753 788.26 140.153 786.86 138.953 785.82C137.753 784.78 136.253 784.26 134.453 784.26C132.733 784.26 131.273 784.76 130.073 785.76C128.913 786.76 128.193 788.18 127.913 790.02H140.753ZM166.925 765.6V810H156.665V765.6H166.925ZM172.321 793.26C172.321 789.78 173.021 786.74 174.421 784.14C175.861 781.54 177.841 779.54 180.361 778.14C182.921 776.74 185.841 776.04 189.121 776.04C193.321 776.04 196.821 777.14 199.621 779.34C202.461 781.54 204.321 784.64 205.201 788.64H194.281C193.361 786.08 191.581 784.8 188.941 784.8C187.061 784.8 185.561 785.54 184.441 787.02C183.321 788.46 182.761 790.54 182.761 793.26C182.761 795.98 183.321 798.08 184.441 799.56C185.561 801 187.061 801.72 188.941 801.72C191.581 801.72 193.361 800.44 194.281 797.88H205.201C204.321 801.8 202.461 804.88 199.621 807.12C196.781 809.36 193.281 810.48 189.121 810.48C185.841 810.48 182.921 809.78 180.361 808.38C177.841 806.98 175.861 804.98 174.421 802.38C173.021 799.78 172.321 796.74 172.321 793.26ZM225.929 810.48C222.649 810.48 219.689 809.78 217.049 808.38C214.449 806.98 212.389 804.98 210.869 802.38C209.389 799.78 208.649 796.74 208.649 793.26C208.649 789.82 209.409 786.8 210.929 784.2C212.449 781.56 214.529 779.54 217.169 778.14C219.809 776.74 222.769 776.04 226.049 776.04C229.329 776.04 232.289 776.74 234.929 778.14C237.569 779.54 239.649 781.56 241.169 784.2C242.689 786.8 243.449 789.82 243.449 793.26C243.449 796.7 242.669 799.74 241.109 802.38C239.589 804.98 237.489 806.98 234.809 808.38C232.169 809.78 229.209 810.48 225.929 810.48ZM225.929 801.6C227.889 801.6 229.549 800.88 230.909 799.44C232.309 798 233.009 795.94 233.009 793.26C233.009 790.58 232.329 788.52 230.969 787.08C229.649 785.64 228.009 784.92 226.049 784.92C224.049 784.92 222.389 785.64 221.069 787.08C219.749 788.48 219.089 790.54 219.089 793.26C219.089 795.94 219.729 798 221.009 799.44C222.329 800.88 223.969 801.6 225.929 801.6ZM291.612 776.16C295.772 776.16 299.072 777.42 301.512 779.94C303.992 782.46 305.232 785.96 305.232 790.44V810H295.032V791.82C295.032 789.66 294.452 788 293.292 786.84C292.172 785.64 290.612 785.04 288.612 785.04C286.612 785.04 285.032 785.64 283.872 786.84C282.752 788 282.192 789.66 282.192 791.82V810H271.992V791.82C271.992 789.66 271.412 788 270.252 786.84C269.132 785.64 267.572 785.04 265.572 785.04C263.572 785.04 261.992 785.64 260.832 786.84C259.712 788 259.152 789.66 259.152 791.82V810H248.892V776.52H259.152V780.72C260.192 779.32 261.552 778.22 263.232 777.42C264.912 776.58 266.812 776.16 268.932 776.16C271.452 776.16 273.692 776.7 275.652 777.78C277.652 778.86 279.212 780.4 280.332 782.4C281.492 780.56 283.072 779.06 285.072 777.9C287.072 776.74 289.252 776.16 291.612 776.16ZM343.967 792.72C343.967 793.68 343.908 794.68 343.788 795.72H320.568C320.728 797.8 321.388 799.4 322.548 800.52C323.748 801.6 325.208 802.14 326.928 802.14C329.488 802.14 331.268 801.06 332.268 798.9H343.188C342.628 801.1 341.608 803.08 340.128 804.84C338.688 806.6 336.868 807.98 334.668 808.98C332.468 809.98 330.008 810.48 327.288 810.48C324.008 810.48 321.088 809.78 318.528 808.38C315.968 806.98 313.968 804.98 312.528 802.38C311.088 799.78 310.368 796.74 310.368 793.26C310.368 789.78 311.068 786.74 312.468 784.14C313.908 781.54 315.908 779.54 318.468 778.14C321.028 776.74 323.968 776.04 327.288 776.04C330.528 776.04 333.408 776.72 335.928 778.08C338.448 779.44 340.408 781.38 341.808 783.9C343.248 786.42 343.967 789.36 343.967 792.72ZM333.468 790.02C333.468 788.26 332.868 786.86 331.668 785.82C330.468 784.78 328.968 784.26 327.168 784.26C325.448 784.26 323.988 784.76 322.788 785.76C321.628 786.76 320.908 788.18 320.628 790.02H333.468ZM362.88 766.38L361.68 795.12H352.98L351.78 766.38H362.88ZM357.48 810.48C355.68 810.48 354.2 809.96 353.04 808.92C351.92 807.84 351.36 806.52 351.36 804.96C351.36 803.36 351.92 802.02 353.04 800.94C354.2 799.86 355.68 799.32 357.48 799.32C359.24 799.32 360.68 799.86 361.8 800.94C362.96 802.02 363.54 803.36 363.54 804.96C363.54 806.52 362.96 807.84 361.8 808.92C360.68 809.96 359.24 810.48 357.48 810.48Z" fill="#FFF5EC"/>
<path d="M270.899 852.5L271.829 849.68L269.579 848.15H272.369L273.359 845.15L274.349 848.15H277.139L274.889 849.68L275.819 852.5L273.359 850.73L270.899 852.5ZM292.632 838.4C292.632 839.5 292.272 840.38 291.552 841.04C290.852 841.7 289.982 842.03 288.942 842.03C287.902 842.03 287.032 841.7 286.332 841.04C285.632 840.38 285.282 839.5 285.282 838.4C285.282 837.3 285.632 836.42 286.332 835.76C287.032 835.1 287.902 834.77 288.942 834.77C289.982 834.77 290.852 835.1 291.552 835.76C292.272 836.42 292.632 837.3 292.632 838.4ZM290.382 838.4C290.382 837.96 290.242 837.61 289.962 837.35C289.702 837.07 289.362 836.93 288.942 836.93C288.542 836.93 288.202 837.07 287.922 837.35C287.662 837.61 287.532 837.96 287.532 838.4C287.532 838.82 287.662 839.17 287.922 839.45C288.202 839.73 288.542 839.87 288.942 839.87C289.362 839.87 289.702 839.73 289.962 839.45C290.242 839.17 290.382 838.82 290.382 838.4ZM298.563 852.56C299.463 852.56 300.273 852.78 300.993 853.22C301.733 853.66 302.313 854.25 302.733 854.99C303.173 855.71 303.393 856.52 303.393 857.42C303.393 858.3 303.173 859.11 302.733 859.85C302.313 860.59 301.733 861.18 300.993 861.62C300.273 862.06 299.453 862.28 298.533 862.28C297.653 862.28 296.843 862.06 296.103 861.62C295.363 861.18 294.773 860.59 294.333 859.85C293.913 859.11 293.703 858.3 293.703 857.42C293.703 856.52 293.913 855.71 294.333 854.99C294.773 854.25 295.363 853.66 296.103 853.22C296.843 852.78 297.663 852.56 298.563 852.56ZM298.563 860.12C299.303 860.12 299.933 859.86 300.453 859.34C300.973 858.8 301.233 858.16 301.233 857.42C301.233 856.92 301.113 856.47 300.873 856.07C300.633 855.65 300.303 855.32 299.883 855.08C299.483 854.84 299.043 854.72 298.563 854.72C298.063 854.72 297.613 854.84 297.213 855.08C296.813 855.32 296.483 855.65 296.223 856.07C295.983 856.47 295.863 856.92 295.863 857.42C295.863 857.92 295.983 858.38 296.223 858.8C296.483 859.2 296.813 859.52 297.213 859.76C297.613 860 298.063 860.12 298.563 860.12ZM310.713 852.5L311.643 849.68L309.393 848.15H312.183L313.173 845.15L314.163 848.15H316.953L314.703 849.68L315.633 852.5L313.173 850.73L310.713 852.5ZM332.329 841.01C333.829 841.01 335.149 841.27 336.289 841.79C337.449 842.29 338.409 842.99 339.169 843.89C339.949 844.79 340.529 845.83 340.909 847.01C341.309 848.17 341.509 849.41 341.509 850.73C341.509 852.07 341.309 853.27 340.909 854.33C340.509 855.37 339.959 856.27 339.259 857.03C338.659 857.69 337.919 858.24 337.039 858.68C336.159 859.12 335.079 859.45 333.799 859.67C332.539 859.89 330.989 860 329.149 860H318.919V856.31H328.099C329.479 856.31 330.629 856.26 331.549 856.16C332.469 856.06 333.239 855.89 333.859 855.65C334.479 855.41 335.019 855.08 335.479 854.66C335.959 854.22 336.329 853.66 336.589 852.98C336.869 852.3 337.009 851.46 337.009 850.46C337.009 849.4 336.879 848.48 336.619 847.7C336.359 846.92 335.989 846.28 335.509 845.78C335.049 845.28 334.499 844.94 333.859 844.76C333.539 844.6 333.209 844.5 332.869 844.46C332.549 844.4 332.229 844.37 331.909 844.37C330.909 844.37 330.239 844.54 329.899 844.88C329.559 845.2 329.389 845.59 329.389 846.05C329.389 846.55 329.539 846.94 329.839 847.22C330.139 847.5 330.569 847.64 331.129 847.64C331.669 847.64 332.089 847.48 332.389 847.16C332.689 846.84 332.839 846.41 332.839 845.87C332.839 845.17 332.669 844.59 332.329 844.13C332.009 843.65 331.709 843.28 331.429 843.02L334.669 844.34L335.509 845.03C335.629 845.39 335.709 845.69 335.749 845.93C335.789 846.15 335.809 846.39 335.809 846.65C335.809 847.45 335.629 848.17 335.269 848.81C334.909 849.43 334.369 849.93 333.649 850.31C332.949 850.67 332.059 850.85 330.979 850.85C329.399 850.85 328.159 850.4 327.259 849.5C326.359 848.6 325.909 847.45 325.909 846.05C325.909 845.07 326.139 844.2 326.599 843.44C327.079 842.68 327.799 842.09 328.759 841.67C329.719 841.23 330.909 841.01 332.329 841.01ZM351.606 841.13C353.106 841.13 354.326 841.34 355.266 841.76C356.206 842.16 356.896 842.72 357.336 843.44C357.796 844.14 358.026 844.94 358.026 845.84C358.026 847.22 357.576 848.3 356.676 849.08C355.776 849.86 354.436 850.25 352.656 850.25C351.996 850.25 351.346 850.19 350.706 850.07C350.066 849.93 349.456 849.75 348.876 849.53L349.656 846.5C350.056 846.64 350.446 846.75 350.826 846.83C351.226 846.91 351.636 846.95 352.056 846.95C352.596 846.95 353.006 846.9 353.286 846.8C353.586 846.7 353.786 846.56 353.886 846.38C354.006 846.18 354.066 845.95 354.066 845.69C354.066 845.27 353.856 844.94 353.436 844.7C353.036 844.44 352.456 844.31 351.696 844.31C350.796 844.31 350.056 844.46 349.476 844.76C348.896 845.06 348.466 845.45 348.186 845.93C347.906 846.41 347.766 846.93 347.766 847.49C347.766 848.23 347.946 848.86 348.306 849.38C348.686 849.88 349.306 850.36 350.166 850.82C351.046 851.28 352.246 851.81 353.766 852.41C355.006 852.89 356.066 853.38 356.946 853.88C357.826 854.36 358.556 854.88 359.136 855.44C359.716 856 360.156 856.62 360.456 857.3C360.756 857.96 360.936 858.73 360.996 859.61L357.126 860.36C357.006 859.78 356.816 859.28 356.556 858.86C356.316 858.42 355.976 858.03 355.536 857.69C355.116 857.33 354.576 856.98 353.916 856.64C353.276 856.3 352.486 855.93 351.546 855.53C349.626 854.71 348.106 853.9 346.986 853.1C345.866 852.3 345.066 851.44 344.586 850.52C344.106 849.6 343.866 848.57 343.866 847.43C343.866 846.23 344.176 845.16 344.796 844.22C345.436 843.26 346.336 842.51 347.496 841.97C348.656 841.41 350.026 841.13 351.606 841.13ZM367.72 838.4C367.72 839.5 367.36 840.38 366.64 841.04C365.94 841.7 365.07 842.03 364.03 842.03C362.99 842.03 362.12 841.7 361.42 841.04C360.72 840.38 360.37 839.5 360.37 838.4C360.37 837.3 360.72 836.42 361.42 835.76C362.12 835.1 362.99 834.77 364.03 834.77C365.07 834.77 365.94 835.1 366.64 835.76C367.36 836.42 367.72 837.3 367.72 838.4ZM365.47 838.4C365.47 837.96 365.33 837.61 365.05 837.35C364.79 837.07 364.45 836.93 364.03 836.93C363.63 836.93 363.29 837.07 363.01 837.35C362.75 837.61 362.62 837.96 362.62 838.4C362.62 838.82 362.75 839.17 363.01 839.45C363.29 839.73 363.63 839.87 364.03 839.87C364.45 839.87 364.79 839.73 365.05 839.45C365.33 839.17 365.47 838.82 365.47 838.4Z" fill="#FFF5EC"/>
</g>
<defs>
<clipPath id="clip0_259_2">
<rect width="1512" height="925" fill="white"/>
</clipPath>
</defs>
</svg>
