<svg width="626" height="353" viewBox="0 0 626 353" fill="none" xmlns="http://www.w3.org/2000/svg">
<rect y="188.535" width="72.3542" height="140.637" rx="16" fill="#F9C6CF"/>
<rect y="127.389" width="43.1966" height="140.637" rx="16" fill="#B20500"/>
<rect x="62.635" y="16.3057" width="145.788" height="52.9937" rx="16" fill="#B31A16"/>
<rect x="24.8381" y="42.8027" width="545.357" height="309.809" rx="22" fill="#FFEBF0"/>
<rect x="512.959" y="100.892" width="38.7261" height="41.0367" rx="19.3631" transform="rotate(-90 512.959 100.892)" fill="#470D03"/>
<path d="M549.071 31.5177C559.059 24.9178 569.95 21.8874 579.29 22.0594C588.644 22.2316 595.864 25.5408 599.907 30.9887C603.949 36.4366 604.775 43.9709 601.747 52.3254C598.724 60.6665 591.982 69.2886 581.994 75.8886C572.006 82.4885 561.114 85.5181 551.775 85.3461C542.42 85.1738 535.199 81.8654 531.157 76.4173C527.115 70.9693 526.29 63.4345 529.318 55.0801C532.341 46.7391 539.083 38.1175 549.071 31.5177Z" stroke="#F9C6CF" stroke-width="13"/>
<rect x="483.802" y="62.1655" width="19.3631" height="70.1944" rx="9.68153" transform="rotate(-90 483.802 62.1655)" fill="#FFEBF0"/>
<path d="M99.6526 37.9537C98.7464 37.9537 97.9396 37.8301 97.2322 37.5829C96.5248 37.3386 95.9268 36.9792 95.4381 36.5048C94.9495 36.0332 94.5774 35.4565 94.3217 34.7747C94.066 34.0929 93.9381 33.3173 93.9381 32.448C93.9381 31.59 94.066 30.8116 94.3217 30.1127C94.5802 29.4139 94.9566 28.8145 95.4509 28.3145C95.9452 27.8116 96.5489 27.4252 97.262 27.1554C97.9779 26.8855 98.7933 26.7505 99.708 26.7505C100.555 26.7505 101.31 26.8741 101.975 27.1213C102.643 27.3684 103.208 27.7207 103.671 28.1781C104.137 28.6326 104.491 29.1738 104.732 29.8017C104.976 30.4267 105.097 31.1184 105.094 31.877C105.097 32.3997 105.052 32.8798 104.958 33.3173C104.864 33.7548 104.717 34.1369 104.515 34.4636C104.316 34.7875 104.055 35.0446 103.731 35.2349C103.407 35.4224 103.015 35.5289 102.555 35.5545C102.225 35.5801 101.958 35.5559 101.753 35.4821C101.549 35.4082 101.393 35.2988 101.285 35.1539C101.18 35.0062 101.111 34.8343 101.08 34.6383H101.029C100.961 34.8088 100.827 34.9636 100.628 35.1028C100.43 35.2392 100.187 35.3457 99.8998 35.4224C99.6157 35.4963 99.3131 35.5233 98.9921 35.5034C98.6569 35.4835 98.3387 35.4054 98.0376 35.269C97.7393 35.1326 97.4737 34.9352 97.2407 34.6767C97.0106 34.4181 96.8288 34.0985 96.6952 33.7179C96.5646 33.3372 96.4978 32.8968 96.495 32.3968C96.4978 31.9025 96.5674 31.4721 96.7038 31.1056C96.843 30.7392 97.0262 30.4309 97.2535 30.1809C97.4836 29.9309 97.7393 29.7349 98.0205 29.5929C98.3018 29.4508 98.5845 29.3599 98.8685 29.3201C99.1896 29.2718 99.4935 29.2718 99.7805 29.3201C100.067 29.3684 100.309 29.4466 100.505 29.5545C100.704 29.6625 100.827 29.7789 100.876 29.9039H100.935V29.4267H102.269V33.5858C102.272 33.7818 102.316 33.9338 102.401 34.0417C102.486 34.1497 102.601 34.2037 102.746 34.2037C102.942 34.2037 103.106 34.117 103.236 33.9437C103.37 33.7704 103.469 33.5048 103.535 33.1468C103.603 32.7889 103.637 32.3329 103.637 31.7789C103.637 31.2449 103.566 30.7761 103.424 30.3727C103.285 29.9664 103.089 29.6213 102.836 29.3372C102.586 29.0502 102.295 28.8173 101.962 28.6383C101.63 28.4593 101.269 28.3287 100.88 28.2463C100.494 28.1639 100.096 28.1227 99.6867 28.1227C98.9793 28.1227 98.3614 28.2306 97.833 28.4466C97.3046 28.6596 96.8643 28.9593 96.512 29.3457C96.1597 29.7321 95.8955 30.1852 95.7194 30.7051C95.5461 31.2221 95.458 31.786 95.4552 32.3968C95.458 33.0701 95.5518 33.6667 95.7364 34.1866C95.9239 34.7037 96.1995 35.1383 96.5631 35.4906C96.9268 35.8429 97.3756 36.1099 97.9097 36.2917C98.4438 36.4735 99.0575 36.5645 99.7506 36.5645C100.077 36.5645 100.397 36.5403 100.709 36.492C101.022 36.4466 101.305 36.3897 101.557 36.3216C101.81 36.2562 102.013 36.1923 102.167 36.1298L102.589 37.3656C102.41 37.4679 102.167 37.563 101.86 37.6511C101.556 37.742 101.212 37.8145 100.829 37.8684C100.448 37.9252 100.056 37.9537 99.6526 37.9537ZM99.4566 34.1014C99.8032 34.1014 100.079 34.0346 100.283 33.9011C100.491 33.7676 100.638 33.5701 100.726 33.3088C100.817 33.0446 100.86 32.7193 100.854 32.3329C100.851 31.992 100.807 31.7037 100.722 31.4679C100.64 31.2292 100.496 31.0488 100.292 30.9267C100.09 30.8017 99.8089 30.7392 99.4481 30.7392C99.1327 30.7392 98.8643 30.8059 98.6427 30.9395C98.4239 31.073 98.2563 31.2605 98.1399 31.502C98.0262 31.7406 97.968 32.0218 97.9651 32.3457C97.968 32.6468 98.0163 32.9324 98.11 33.2022C98.2038 33.4693 98.3586 33.6866 98.5745 33.8542C98.7904 34.019 99.0845 34.1014 99.4566 34.1014ZM108.117 31.6554V35.4395H106.301V28.894H108.032V30.0488H108.108C108.253 29.6681 108.496 29.367 108.837 29.1454C109.178 28.921 109.591 28.8088 110.077 28.8088C110.532 28.8088 110.928 28.9082 111.266 29.1071C111.604 29.3059 111.867 29.59 112.054 29.9593C112.242 30.3258 112.336 30.7633 112.336 31.2718V35.4395H110.52V31.5957C110.523 31.1951 110.421 30.8826 110.213 30.6582C110.006 30.4309 109.72 30.3173 109.357 30.3173C109.113 30.3173 108.897 30.3699 108.709 30.475C108.524 30.5801 108.38 30.7335 108.274 30.9352C108.172 31.1341 108.12 31.3741 108.117 31.6554ZM113.766 35.4395V28.894H115.582V35.4395H113.766ZM114.678 28.0502C114.408 28.0502 114.177 27.9608 113.984 27.7818C113.793 27.6 113.698 27.3826 113.698 27.1298C113.698 26.8798 113.793 26.6653 113.984 26.4863C114.177 26.3045 114.408 26.2136 114.678 26.2136C114.948 26.2136 115.178 26.3045 115.369 26.4863C115.562 26.6653 115.658 26.8798 115.658 27.1298C115.658 27.3826 115.562 27.6 115.369 27.7818C115.178 27.9608 114.948 28.0502 114.678 28.0502ZM119.993 35.5673C119.323 35.5673 118.746 35.4252 118.263 35.1412C117.783 34.8542 117.414 34.4565 117.155 33.948C116.899 33.4395 116.772 32.8542 116.772 32.1923C116.772 31.5218 116.901 30.9338 117.159 30.4281C117.421 29.9196 117.791 29.5233 118.272 29.2392C118.752 28.9522 119.323 28.8088 119.985 28.8088C120.556 28.8088 121.056 28.9125 121.485 29.1199C121.914 29.3272 122.253 29.6184 122.503 29.9934C122.753 30.3684 122.891 30.8088 122.916 31.3145H121.203C121.155 30.9877 121.027 30.725 120.82 30.5261C120.615 30.3244 120.347 30.2235 120.014 30.2235C119.733 30.2235 119.488 30.3002 119.277 30.4537C119.07 30.6042 118.908 30.8244 118.791 31.1142C118.675 31.4039 118.617 31.7548 118.617 32.1667C118.617 32.5843 118.674 32.9395 118.787 33.2321C118.904 33.5247 119.067 33.7477 119.277 33.9011C119.488 34.0545 119.733 34.1312 120.014 34.1312C120.222 34.1312 120.408 34.0886 120.573 34.0034C120.74 33.9181 120.878 33.7946 120.986 33.6326C121.097 33.4679 121.169 33.2704 121.203 33.0403H122.916C122.888 33.5403 122.752 33.9806 122.507 34.3613C122.266 34.7392 121.932 35.0346 121.506 35.2477C121.08 35.4608 120.576 35.5673 119.993 35.5673ZM127.036 35.5673C126.374 35.5673 125.802 35.4267 125.319 35.1454C124.839 34.8613 124.468 34.4664 124.207 33.9608C123.945 33.4522 123.815 32.8627 123.815 32.1923C123.815 31.5162 123.945 30.9252 124.207 30.4196C124.468 29.911 124.839 29.5162 125.319 29.2349C125.802 28.9508 126.374 28.8088 127.036 28.8088C127.698 28.8088 128.269 28.9508 128.749 29.2349C129.232 29.5162 129.604 29.911 129.866 30.4196C130.127 30.9252 130.258 31.5162 130.258 32.1923C130.258 32.8627 130.127 33.4522 129.866 33.9608C129.604 34.4664 129.232 34.8613 128.749 35.1454C128.269 35.4267 127.698 35.5673 127.036 35.5673ZM127.045 34.161C127.346 34.161 127.597 34.0758 127.799 33.9054C128.001 33.7321 128.153 33.4963 128.255 33.198C128.36 32.8997 128.413 32.5602 128.413 32.1795C128.413 31.7988 128.36 31.4593 128.255 31.161C128.153 30.8627 128.001 30.627 127.799 30.4537C127.597 30.2804 127.346 30.1937 127.045 30.1937C126.741 30.1937 126.485 30.2804 126.278 30.4537C126.073 30.627 125.918 30.8627 125.813 31.161C125.711 31.4593 125.66 31.7988 125.66 32.1795C125.66 32.5602 125.711 32.8997 125.813 33.198C125.918 33.4963 126.073 33.7321 126.278 33.9054C126.485 34.0758 126.741 34.161 127.045 34.161ZM133.253 26.7122V35.4395H131.438V26.7122H133.253ZM137.691 35.5673C137.017 35.5673 136.438 35.4309 135.952 35.1582C135.469 34.8826 135.097 34.4934 134.836 33.9906C134.574 33.4849 134.443 32.8869 134.443 32.1966C134.443 31.5233 134.574 30.9324 134.836 30.4238C135.097 29.9153 135.465 29.519 135.939 29.2349C136.416 28.9508 136.976 28.8088 137.618 28.8088C138.05 28.8088 138.452 28.8784 138.824 29.0176C139.199 29.1539 139.526 29.3599 139.804 29.6355C140.086 29.911 140.304 30.2576 140.461 30.6752C140.617 31.09 140.695 31.5758 140.695 32.1326V32.6312H135.168V31.5062H138.986C138.986 31.2449 138.929 31.0133 138.816 30.8116C138.702 30.6099 138.544 30.4522 138.343 30.3386C138.144 30.2221 137.912 30.1639 137.648 30.1639C137.372 30.1639 137.128 30.2278 136.915 30.3556C136.705 30.4806 136.54 30.6497 136.421 30.8627C136.301 31.073 136.24 31.3074 136.238 31.5659V32.6355C136.238 32.9593 136.297 33.2392 136.416 33.475C136.539 33.7108 136.711 33.8926 136.932 34.0204C137.154 34.1483 137.416 34.2122 137.72 34.2122C137.922 34.2122 138.107 34.1838 138.274 34.127C138.442 34.0701 138.586 33.9849 138.705 33.8713C138.824 33.7576 138.915 33.6184 138.978 33.4537L140.657 33.5645C140.571 33.9679 140.397 34.3201 140.132 34.6213C139.871 34.9196 139.533 35.1525 139.118 35.3201C138.706 35.4849 138.23 35.5673 137.691 35.5673ZM143.695 26.7122V35.4395H141.88V26.7122H143.695ZM148.132 35.5673C147.459 35.5673 146.879 35.4309 146.393 35.1582C145.91 34.8826 145.538 34.4934 145.277 33.9906C145.016 33.4849 144.885 32.8869 144.885 32.1966C144.885 31.5233 145.016 30.9324 145.277 30.4238C145.538 29.9153 145.906 29.519 146.381 29.2349C146.858 28.9508 147.418 28.8088 148.06 28.8088C148.491 28.8088 148.893 28.8784 149.266 29.0176C149.641 29.1539 149.967 29.3599 150.246 29.6355C150.527 29.911 150.746 30.2576 150.902 30.6752C151.058 31.09 151.136 31.5758 151.136 32.1326V32.6312H145.609V31.5062H149.427C149.427 31.2449 149.371 31.0133 149.257 30.8116C149.143 30.6099 148.986 30.4522 148.784 30.3386C148.585 30.2221 148.354 30.1639 148.089 30.1639C147.814 30.1639 147.57 30.2278 147.356 30.3556C147.146 30.4806 146.981 30.6497 146.862 30.8627C146.743 31.073 146.682 31.3074 146.679 31.5659V32.6355C146.679 32.9593 146.739 33.2392 146.858 33.475C146.98 33.7108 147.152 33.8926 147.374 34.0204C147.595 34.1483 147.858 34.2122 148.162 34.2122C148.364 34.2122 148.548 34.1838 148.716 34.127C148.883 34.0701 149.027 33.9849 149.146 33.8713C149.266 33.7576 149.356 33.6184 149.419 33.4537L151.098 33.5645C151.013 33.9679 150.838 34.3201 150.574 34.6213C150.312 34.9196 149.974 35.1525 149.56 35.3201C149.148 35.4849 148.672 35.5673 148.132 35.5673ZM155.304 35.5673C154.631 35.5673 154.051 35.4309 153.565 35.1582C153.082 34.8826 152.71 34.4934 152.449 33.9906C152.187 33.4849 152.057 32.8869 152.057 32.1966C152.057 31.5233 152.187 30.9324 152.449 30.4238C152.71 29.9153 153.078 29.519 153.552 29.2349C154.03 28.9508 154.589 28.8088 155.231 28.8088C155.663 28.8088 156.065 28.8784 156.437 29.0176C156.812 29.1539 157.139 29.3599 157.418 29.6355C157.699 29.911 157.918 30.2576 158.074 30.6752C158.23 31.09 158.308 31.5758 158.308 32.1326V32.6312H152.781V31.5062H156.599C156.599 31.2449 156.543 31.0133 156.429 30.8116C156.315 30.6099 156.158 30.4522 155.956 30.3386C155.757 30.2221 155.526 30.1639 155.261 30.1639C154.986 30.1639 154.741 30.2278 154.528 30.3556C154.318 30.4806 154.153 30.6497 154.034 30.8627C153.915 31.073 153.854 31.3074 153.851 31.5659V32.6355C153.851 32.9593 153.91 33.2392 154.03 33.475C154.152 33.7108 154.324 33.8926 154.545 34.0204C154.767 34.1483 155.03 34.2122 155.334 34.2122C155.535 34.2122 155.72 34.1838 155.888 34.127C156.055 34.0701 156.199 33.9849 156.318 33.8713C156.437 33.7576 156.528 33.6184 156.591 33.4537L158.27 33.5645C158.185 33.9679 158.01 34.3201 157.746 34.6213C157.484 34.9196 157.146 35.1525 156.731 35.3201C156.32 35.4849 155.844 35.5673 155.304 35.5673ZM161.308 31.6554V35.4395H159.493V26.7122H161.257V30.0488H161.334C161.481 29.6625 161.72 29.3599 162.05 29.1412C162.379 28.9196 162.793 28.8088 163.29 28.8088C163.744 28.8088 164.141 28.9082 164.479 29.1071C164.82 29.3031 165.084 29.5858 165.271 29.9551C165.462 30.3216 165.555 30.7605 165.552 31.2718V35.4395H163.737V31.5957C163.74 31.1923 163.638 30.8784 163.43 30.6539C163.226 30.4295 162.939 30.3173 162.57 30.3173C162.322 30.3173 162.104 30.3699 161.913 30.475C161.726 30.5801 161.578 30.7335 161.47 30.9352C161.365 31.1341 161.311 31.3741 161.308 31.6554ZM167.867 37.894C167.637 37.894 167.421 37.8755 167.22 37.8386C167.021 37.8045 166.856 37.7605 166.725 37.7065L167.135 36.3514C167.348 36.4167 167.539 36.4522 167.71 36.4579C167.883 36.4636 168.032 36.4238 168.157 36.3386C168.285 36.2534 168.389 36.1085 168.468 35.9039L168.575 35.627L166.227 28.894H168.136L169.491 33.7008H169.559L170.927 28.894H172.849L170.305 36.1468C170.183 36.4991 170.017 36.8059 169.806 37.0673C169.599 37.3315 169.336 37.5346 169.018 37.6767C168.7 37.8216 168.316 37.894 167.867 37.894ZM177.558 26.7122V35.4395H175.713V28.4636H175.662L173.663 29.7164V28.0801L175.823 26.7122H177.558Z" fill="#FFFBEC"/>
</svg>
