<svg width="580" height="346" viewBox="0 0 580 346" fill="none" xmlns="http://www.w3.org/2000/svg">
<rect y="185" width="67" height="138" rx="16" fill="#F9C6CF"/>
<rect y="125" width="40" height="138" rx="16" fill="#B20500"/>
<rect x="58" y="16" width="135" height="52" rx="16" fill="#B31A16"/>
<rect x="23" y="42" width="505" height="304" rx="22" fill="#FFEBF0"/>
<rect x="475" y="99" width="38" height="38" rx="19" transform="rotate(-90 475 99)" fill="#F6F4F4"/>
<path d="M508.581 31.1291C517.751 24.7085 527.741 21.7663 536.3 21.9333C544.866 22.1005 551.493 25.3089 555.211 30.6193C558.929 35.9298 559.678 43.2552 556.906 51.3612C554.135 59.4609 547.954 67.8428 538.784 74.2634C529.615 80.6839 519.624 83.626 511.065 83.4591C502.5 83.2919 495.872 80.0828 492.154 74.7724C488.436 69.4619 487.687 62.1371 490.46 54.0312C493.23 45.9315 499.412 37.5497 508.581 31.1291Z" stroke="#F9C6CF" stroke-width="13"/>
<rect x="448" y="61" width="19" height="65" rx="9.5" transform="rotate(-90 448 61)" fill="#FFEBF0"/>
<path d="M83.31 104.47C84.43 102.65 86.04 101.18 88.14 100.06C90.24 98.94 92.6433 98.38 95.35 98.38C98.57 98.38 101.487 99.1967 104.1 100.83C106.713 102.463 108.767 104.797 110.26 107.83C111.8 110.863 112.57 114.387 112.57 118.4C112.57 122.413 111.8 125.96 110.26 129.04C108.767 132.073 106.713 134.43 104.1 136.11C101.487 137.743 98.57 138.56 95.35 138.56C92.5967 138.56 90.1933 138.023 88.14 136.95C86.0867 135.83 84.4767 134.36 83.31 132.54V138H71.34V86.2H83.31V104.47ZM100.39 118.4C100.39 115.413 99.55 113.08 97.87 111.4C96.2367 109.673 94.2067 108.81 91.78 108.81C89.4 108.81 87.37 109.673 85.69 111.4C84.0567 113.127 83.24 115.483 83.24 118.47C83.24 121.457 84.0567 123.813 85.69 125.54C87.37 127.267 89.4 128.13 91.78 128.13C94.16 128.13 96.19 127.267 97.87 125.54C99.55 123.767 100.39 121.387 100.39 118.4ZM116.47 118.4C116.47 114.387 117.216 110.863 118.71 107.83C120.25 104.797 122.326 102.463 124.94 100.83C127.553 99.1967 130.47 98.38 133.69 98.38C136.443 98.38 138.846 98.94 140.9 100.06C143 101.18 144.61 102.65 145.73 104.47V98.94H157.7V138H145.73V132.47C144.563 134.29 142.93 135.76 140.83 136.88C138.776 138 136.373 138.56 133.62 138.56C130.446 138.56 127.553 137.743 124.94 136.11C122.326 134.43 120.25 132.073 118.71 129.04C117.216 125.96 116.47 122.413 116.47 118.4ZM145.73 118.47C145.73 115.483 144.89 113.127 143.21 111.4C141.576 109.673 139.57 108.81 137.19 108.81C134.81 108.81 132.78 109.673 131.1 111.4C129.466 113.08 128.65 115.413 128.65 118.4C128.65 121.387 129.466 123.767 131.1 125.54C132.78 127.267 134.81 128.13 137.19 128.13C139.57 128.13 141.576 127.267 143.21 125.54C144.89 123.813 145.73 121.457 145.73 118.47ZM182.25 138.56C178.843 138.56 175.81 137.977 173.15 136.81C170.49 135.643 168.39 134.057 166.85 132.05C165.31 129.997 164.446 127.71 164.26 125.19H176.09C176.23 126.543 176.86 127.64 177.98 128.48C179.1 129.32 180.476 129.74 182.11 129.74C183.603 129.74 184.746 129.46 185.54 128.9C186.38 128.293 186.8 127.523 186.8 126.59C186.8 125.47 186.216 124.653 185.05 124.14C183.883 123.58 181.993 122.973 179.38 122.32C176.58 121.667 174.246 120.99 172.38 120.29C170.513 119.543 168.903 118.4 167.55 116.86C166.196 115.273 165.52 113.15 165.52 110.49C165.52 108.25 166.126 106.22 167.34 104.4C168.6 102.533 170.42 101.063 172.8 99.99C175.226 98.9167 178.096 98.38 181.41 98.38C186.31 98.38 190.16 99.5933 192.96 102.02C195.806 104.447 197.44 107.667 197.86 111.68H186.8C186.613 110.327 186.006 109.253 184.98 108.46C184 107.667 182.693 107.27 181.06 107.27C179.66 107.27 178.586 107.55 177.84 108.11C177.093 108.623 176.72 109.347 176.72 110.28C176.72 111.4 177.303 112.24 178.47 112.8C179.683 113.36 181.55 113.92 184.07 114.48C186.963 115.227 189.32 115.973 191.14 116.72C192.96 117.42 194.546 118.587 195.9 120.22C197.3 121.807 198.023 123.953 198.07 126.66C198.07 128.947 197.416 131 196.11 132.82C194.85 134.593 193.006 135.993 190.58 137.02C188.2 138.047 185.423 138.56 182.25 138.56ZM211.413 94.88C209.313 94.88 207.586 94.2733 206.233 93.06C204.926 91.8 204.273 90.26 204.273 88.44C204.273 86.5733 204.926 85.0333 206.233 83.82C207.586 82.56 209.313 81.93 211.413 81.93C213.466 81.93 215.146 82.56 216.453 83.82C217.806 85.0333 218.483 86.5733 218.483 88.44C218.483 90.26 217.806 91.8 216.453 93.06C215.146 94.2733 213.466 94.88 211.413 94.88ZM217.363 98.94V138H205.393V98.94H217.363ZM223.657 118.47C223.657 114.41 224.474 110.863 226.107 107.83C227.787 104.797 230.097 102.463 233.037 100.83C236.024 99.1967 239.431 98.38 243.257 98.38C248.157 98.38 252.241 99.6633 255.507 102.23C258.821 104.797 260.991 108.413 262.017 113.08H249.277C248.204 110.093 246.127 108.6 243.047 108.6C240.854 108.6 239.104 109.463 237.797 111.19C236.491 112.87 235.837 115.297 235.837 118.47C235.837 121.643 236.491 124.093 237.797 125.82C239.104 127.5 240.854 128.34 243.047 128.34C246.127 128.34 248.204 126.847 249.277 123.86H262.017C260.991 128.433 258.821 132.027 255.507 134.64C252.194 137.253 248.111 138.56 243.257 138.56C239.431 138.56 236.024 137.743 233.037 136.11C230.097 134.477 227.787 132.143 226.107 129.11C224.474 126.077 223.657 122.53 223.657 118.47ZM289.274 94.88C287.174 94.88 285.447 94.2733 284.094 93.06C282.787 91.8 282.134 90.26 282.134 88.44C282.134 86.5733 282.787 85.0333 284.094 83.82C285.447 82.56 287.174 81.93 289.274 81.93C291.327 81.93 293.007 82.56 294.314 83.82C295.667 85.0333 296.344 86.5733 296.344 88.44C296.344 90.26 295.667 91.8 294.314 93.06C293.007 94.2733 291.327 94.88 289.274 94.88ZM295.224 98.94V138H283.254V98.94H295.224ZM327.699 98.52C332.272 98.52 335.912 100.013 338.619 103C341.372 105.94 342.749 110 342.749 115.18V138H330.849V116.79C330.849 114.177 330.172 112.147 328.819 110.7C327.465 109.253 325.645 108.53 323.359 108.53C321.072 108.53 319.252 109.253 317.899 110.7C316.545 112.147 315.869 114.177 315.869 116.79V138H303.899V98.94H315.869V104.12C317.082 102.393 318.715 101.04 320.769 100.06C322.822 99.0333 325.132 98.52 327.699 98.52ZM370.667 108.88H364.227V138H352.257V108.88H347.917V98.94H352.257V97.82C352.257 93.0133 353.633 89.3733 356.387 86.9C359.14 84.38 363.177 83.12 368.497 83.12C369.383 83.12 370.037 83.1433 370.457 83.19V93.34C368.17 93.2 366.56 93.5267 365.627 94.32C364.693 95.1133 364.227 96.5367 364.227 98.59V98.94H370.667V108.88ZM394.071 138.56C390.245 138.56 386.791 137.743 383.711 136.11C380.678 134.477 378.275 132.143 376.501 129.11C374.775 126.077 373.911 122.53 373.911 118.47C373.911 114.457 374.798 110.933 376.571 107.9C378.345 104.82 380.771 102.463 383.851 100.83C386.931 99.1967 390.385 98.38 394.211 98.38C398.038 98.38 401.491 99.1967 404.571 100.83C407.651 102.463 410.078 104.82 411.851 107.9C413.625 110.933 414.511 114.457 414.511 118.47C414.511 122.483 413.601 126.03 411.781 129.11C410.008 132.143 407.558 134.477 404.431 136.11C401.351 137.743 397.898 138.56 394.071 138.56ZM394.071 128.2C396.358 128.2 398.295 127.36 399.881 125.68C401.515 124 402.331 121.597 402.331 118.47C402.331 115.343 401.538 112.94 399.951 111.26C398.411 109.58 396.498 108.74 394.211 108.74C391.878 108.74 389.941 109.58 388.401 111.26C386.861 112.893 386.091 115.297 386.091 118.47C386.091 121.597 386.838 124 388.331 125.68C389.871 127.36 391.785 128.2 394.071 128.2ZM426.461 138.56C424.361 138.56 422.635 137.953 421.281 136.74C419.975 135.48 419.321 133.94 419.321 132.12C419.321 130.253 419.975 128.69 421.281 127.43C422.635 126.17 424.361 125.54 426.461 125.54C428.515 125.54 430.195 126.17 431.501 127.43C432.855 128.69 433.531 130.253 433.531 132.12C433.531 133.94 432.855 135.48 431.501 136.74C430.195 137.953 428.515 138.56 426.461 138.56Z" fill="#B61E1D"/>
<path d="M89.5835 37.5142C88.6772 37.5142 87.8704 37.3906 87.163 37.1435C86.4556 36.8991 85.8576 36.5398 85.369 36.0653C84.8803 35.5938 84.5082 35.017 84.2525 34.3352C83.9968 33.6534 83.869 32.8778 83.869 32.0085C83.869 31.1506 83.9968 30.3722 84.2525 29.6733C84.511 28.9744 84.8874 28.375 85.3817 27.875C85.8761 27.3722 86.4798 26.9858 87.1928 26.7159C87.9087 26.446 88.7241 26.3111 89.6388 26.3111C90.4854 26.3111 91.2411 26.4347 91.9059 26.6818C92.5735 26.929 93.1388 27.2812 93.6019 27.7386C94.0678 28.1932 94.4215 28.7344 94.663 29.3622C94.9073 29.9872 95.0281 30.679 95.0252 31.4375C95.0281 31.9602 94.9826 32.4403 94.8888 32.8778C94.7951 33.3153 94.6474 33.6974 94.4457 34.0241C94.2468 34.348 93.9854 34.6051 93.6616 34.7955C93.3377 34.983 92.9457 35.0895 92.4854 35.1151C92.1559 35.1406 91.8888 35.1165 91.6843 35.0426C91.4798 34.9687 91.3235 34.8594 91.2156 34.7145C91.1104 34.5668 91.0423 34.3949 91.011 34.1989H90.9599C90.8917 34.3693 90.7582 34.5241 90.5593 34.6634C90.3604 34.7997 90.1175 34.9062 89.8306 34.983C89.5465 35.0568 89.244 35.0838 88.9229 35.0639C88.5877 35.044 88.2695 34.9659 87.9684 34.8295C87.6701 34.6932 87.4045 34.4957 87.1715 34.2372C86.9414 33.9787 86.7596 33.6591 86.6261 33.2784C86.4954 32.8977 86.4286 32.4574 86.4258 31.9574C86.4286 31.4631 86.4982 31.0327 86.6346 30.6662C86.7738 30.2997 86.957 29.9915 87.1843 29.7415C87.4144 29.4915 87.6701 29.2955 87.9513 29.1534C88.2326 29.0114 88.5153 28.9205 88.7994 28.8807C89.1204 28.8324 89.4244 28.8324 89.7113 28.8807C89.9982 28.929 90.2397 29.0071 90.4357 29.1151C90.6346 29.223 90.7582 29.3395 90.8065 29.4645H90.8661V28.9872H92.1999V33.1463C92.2028 33.3423 92.2468 33.4943 92.332 33.6023C92.4173 33.7102 92.5323 33.7642 92.6772 33.7642C92.8732 33.7642 93.0366 33.6776 93.1673 33.5043C93.3008 33.331 93.4002 33.0653 93.4656 32.7074C93.5337 32.3494 93.5678 31.8935 93.5678 31.3395C93.5678 30.8054 93.4968 30.3366 93.3548 29.9332C93.2156 29.527 93.0195 29.1818 92.7667 28.8977C92.5167 28.6108 92.2255 28.3778 91.8931 28.1989C91.5607 28.0199 91.1999 27.8892 90.8107 27.8068C90.4244 27.7244 90.0266 27.6832 89.6175 27.6832C88.9102 27.6832 88.2923 27.7912 87.7638 28.0071C87.2354 28.2202 86.7951 28.5199 86.4428 28.9062C86.0906 29.2926 85.8263 29.7457 85.6502 30.2656C85.4769 30.7827 85.3888 31.3466 85.386 31.9574C85.3888 32.6307 85.4826 33.2273 85.6673 33.7472C85.8548 34.2642 86.1303 34.6989 86.494 35.0511C86.8576 35.4034 87.3065 35.6705 87.8406 35.8523C88.3746 36.0341 88.9883 36.125 89.6815 36.125C90.0082 36.125 90.3278 36.1009 90.6403 36.0526C90.9528 36.0071 91.2354 35.9503 91.4883 35.8821C91.7411 35.8168 91.9442 35.7528 92.0977 35.6903L92.5195 36.9261C92.3406 37.0284 92.0977 37.1236 91.7908 37.2116C91.4869 37.3026 91.1431 37.375 90.7596 37.429C90.3789 37.4858 89.9869 37.5142 89.5835 37.5142ZM89.3874 33.6619C89.734 33.6619 90.0096 33.5952 90.2141 33.4616C90.4215 33.3281 90.5692 33.1307 90.6573 32.8693C90.7482 32.6051 90.7908 32.2798 90.7852 31.8935C90.7823 31.5526 90.7383 31.2642 90.6531 31.0284C90.5707 30.7898 90.4272 30.6094 90.2227 30.4872C90.021 30.3622 89.7397 30.2997 89.3789 30.2997C89.0636 30.2997 88.7951 30.3665 88.5735 30.5C88.3548 30.6335 88.1871 30.821 88.0707 31.0625C87.957 31.3011 87.8988 31.5824 87.896 31.9062C87.8988 32.2074 87.9471 32.4929 88.0408 32.7628C88.1346 33.0298 88.2894 33.2472 88.5053 33.4148C88.7212 33.5795 89.0153 33.6619 89.3874 33.6619ZM98.0476 31.2159V35H96.2322V28.4545H97.9624V29.6094H98.0391C98.1839 29.2287 98.4268 28.9276 98.7678 28.706C99.1087 28.4815 99.522 28.3693 100.008 28.3693C100.462 28.3693 100.859 28.4688 101.197 28.6676C101.535 28.8665 101.798 29.1506 101.985 29.5199C102.173 29.8864 102.266 30.3239 102.266 30.8324V35H100.451V31.1562C100.454 30.7557 100.352 30.4432 100.144 30.2188C99.9368 29.9915 99.6513 29.8778 99.2876 29.8778C99.0433 29.8778 98.8274 29.9304 98.6399 30.0355C98.4553 30.1406 98.3104 30.294 98.2053 30.4957C98.103 30.6946 98.0504 30.9347 98.0476 31.2159ZM103.697 35V28.4545H105.512V35H103.697ZM104.609 27.6108C104.339 27.6108 104.108 27.5213 103.914 27.3423C103.724 27.1605 103.629 26.9432 103.629 26.6903C103.629 26.4403 103.724 26.2259 103.914 26.0469C104.108 25.8651 104.339 25.7741 104.609 25.7741C104.879 25.7741 105.109 25.8651 105.299 26.0469C105.493 26.2259 105.589 26.4403 105.589 26.6903C105.589 26.9432 105.493 27.1605 105.299 27.3423C105.109 27.5213 104.879 27.6108 104.609 27.6108ZM109.924 35.1278C109.254 35.1278 108.677 34.9858 108.194 34.7017C107.714 34.4148 107.344 34.017 107.086 33.5085C106.83 33 106.702 32.4148 106.702 31.7528C106.702 31.0824 106.832 30.4943 107.09 29.9886C107.352 29.4801 107.722 29.0838 108.202 28.7997C108.683 28.5128 109.254 28.3693 109.915 28.3693C110.487 28.3693 110.987 28.473 111.415 28.6804C111.844 28.8878 112.184 29.179 112.434 29.554C112.684 29.929 112.822 30.3693 112.847 30.875H111.134C111.086 30.5483 110.958 30.2855 110.751 30.0866C110.546 29.8849 110.278 29.7841 109.945 29.7841C109.664 29.7841 109.418 29.8608 109.208 30.0142C109.001 30.1648 108.839 30.3849 108.722 30.6747C108.606 30.9645 108.548 31.3153 108.548 31.7273C108.548 32.1449 108.604 32.5 108.718 32.7926C108.835 33.0852 108.998 33.3082 109.208 33.4616C109.418 33.6151 109.664 33.6918 109.945 33.6918C110.153 33.6918 110.339 33.6491 110.504 33.5639C110.671 33.4787 110.809 33.3551 110.917 33.1932C111.028 33.0284 111.1 32.831 111.134 32.6009H112.847C112.819 33.1009 112.683 33.5412 112.438 33.9219C112.197 34.2997 111.863 34.5952 111.437 34.8082C111.011 35.0213 110.506 35.1278 109.924 35.1278ZM116.967 35.1278C116.305 35.1278 115.733 34.9872 115.25 34.706C114.77 34.4219 114.399 34.027 114.137 33.5213C113.876 33.0128 113.745 32.4233 113.745 31.7528C113.745 31.0767 113.876 30.4858 114.137 29.9801C114.399 29.4716 114.77 29.0767 115.25 28.7955C115.733 28.5114 116.305 28.3693 116.967 28.3693C117.629 28.3693 118.2 28.5114 118.68 28.7955C119.163 29.0767 119.535 29.4716 119.797 29.9801C120.058 30.4858 120.189 31.0767 120.189 31.7528C120.189 32.4233 120.058 33.0128 119.797 33.5213C119.535 34.027 119.163 34.4219 118.68 34.706C118.2 34.9872 117.629 35.1278 116.967 35.1278ZM116.975 33.7216C117.277 33.7216 117.528 33.6364 117.73 33.4659C117.931 33.2926 118.083 33.0568 118.186 32.7585C118.291 32.4602 118.343 32.1207 118.343 31.7401C118.343 31.3594 118.291 31.0199 118.186 30.7216C118.083 30.4233 117.931 30.1875 117.73 30.0142C117.528 29.8409 117.277 29.7543 116.975 29.7543C116.672 29.7543 116.416 29.8409 116.208 30.0142C116.004 30.1875 115.849 30.4233 115.744 30.7216C115.642 31.0199 115.591 31.3594 115.591 31.7401C115.591 32.1207 115.642 32.4602 115.744 32.7585C115.849 33.0568 116.004 33.2926 116.208 33.4659C116.416 33.6364 116.672 33.7216 116.975 33.7216ZM123.184 26.2727V35H121.369V26.2727H123.184ZM127.621 35.1278C126.948 35.1278 126.369 34.9915 125.883 34.7188C125.4 34.4432 125.028 34.054 124.766 33.5511C124.505 33.0455 124.374 32.4474 124.374 31.7571C124.374 31.0838 124.505 30.4929 124.766 29.9844C125.028 29.4759 125.396 29.0795 125.87 28.7955C126.347 28.5114 126.907 28.3693 127.549 28.3693C127.981 28.3693 128.383 28.4389 128.755 28.5781C129.13 28.7145 129.457 28.9205 129.735 29.196C130.016 29.4716 130.235 29.8182 130.391 30.2358C130.548 30.6506 130.626 31.1364 130.626 31.6932V32.1918H125.099V31.0668H128.917C128.917 30.8054 128.86 30.5739 128.746 30.3722C128.633 30.1705 128.475 30.0128 128.273 29.8991C128.075 29.7827 127.843 29.7244 127.579 29.7244C127.303 29.7244 127.059 29.7884 126.846 29.9162C126.636 30.0412 126.471 30.2102 126.352 30.4233C126.232 30.6335 126.171 30.8679 126.168 31.1264V32.196C126.168 32.5199 126.228 32.7997 126.347 33.0355C126.469 33.2713 126.641 33.4531 126.863 33.581C127.085 33.7088 127.347 33.7727 127.651 33.7727C127.853 33.7727 128.038 33.7443 128.205 33.6875C128.373 33.6307 128.516 33.5455 128.636 33.4318C128.755 33.3182 128.846 33.179 128.908 33.0142L130.587 33.125C130.502 33.5284 130.327 33.8807 130.063 34.1818C129.802 34.4801 129.464 34.7131 129.049 34.8807C128.637 35.0455 128.161 35.1278 127.621 35.1278ZM133.626 26.2727V35H131.81V26.2727H133.626ZM138.063 35.1278C137.39 35.1278 136.81 34.9915 136.324 34.7188C135.841 34.4432 135.469 34.054 135.208 33.5511C134.946 33.0455 134.816 32.4474 134.816 31.7571C134.816 31.0838 134.946 30.4929 135.208 29.9844C135.469 29.4759 135.837 29.0795 136.311 28.7955C136.789 28.5114 137.348 28.3693 137.99 28.3693C138.422 28.3693 138.824 28.4389 139.196 28.5781C139.571 28.7145 139.898 28.9205 140.176 29.196C140.458 29.4716 140.676 29.8182 140.833 30.2358C140.989 30.6506 141.067 31.1364 141.067 31.6932V32.1918H135.54V31.0668H139.358C139.358 30.8054 139.301 30.5739 139.188 30.3722C139.074 30.1705 138.917 30.0128 138.715 29.8991C138.516 29.7827 138.284 29.7244 138.02 29.7244C137.745 29.7244 137.5 29.7884 137.287 29.9162C137.077 30.0412 136.912 30.2102 136.793 30.4233C136.674 30.6335 136.613 30.8679 136.61 31.1264V32.196C136.61 32.5199 136.669 32.7997 136.789 33.0355C136.911 33.2713 137.083 33.4531 137.304 33.581C137.526 33.7088 137.789 33.7727 138.093 33.7727C138.294 33.7727 138.479 33.7443 138.647 33.6875C138.814 33.6307 138.958 33.5455 139.077 33.4318C139.196 33.3182 139.287 33.179 139.35 33.0142L141.029 33.125C140.944 33.5284 140.769 33.8807 140.505 34.1818C140.243 34.4801 139.905 34.7131 139.49 34.8807C139.078 35.0455 138.603 35.1278 138.063 35.1278ZM145.235 35.1278C144.561 35.1278 143.982 34.9915 143.496 34.7188C143.013 34.4432 142.641 34.054 142.38 33.5511C142.118 33.0455 141.988 32.4474 141.988 31.7571C141.988 31.0838 142.118 30.4929 142.38 29.9844C142.641 29.4759 143.009 29.0795 143.483 28.7955C143.961 28.5114 144.52 28.3693 145.162 28.3693C145.594 28.3693 145.996 28.4389 146.368 28.5781C146.743 28.7145 147.07 28.9205 147.348 29.196C147.63 29.4716 147.848 29.8182 148.005 30.2358C148.161 30.6506 148.239 31.1364 148.239 31.6932V32.1918H142.712V31.0668H146.53C146.53 30.8054 146.473 30.5739 146.36 30.3722C146.246 30.1705 146.088 30.0128 145.887 29.8991C145.688 29.7827 145.456 29.7244 145.192 29.7244C144.917 29.7244 144.672 29.7884 144.459 29.9162C144.249 30.0412 144.084 30.2102 143.965 30.4233C143.846 30.6335 143.784 30.8679 143.782 31.1264V32.196C143.782 32.5199 143.841 32.7997 143.961 33.0355C144.083 33.2713 144.255 33.4531 144.476 33.581C144.698 33.7088 144.961 33.7727 145.265 33.7727C145.466 33.7727 145.651 33.7443 145.819 33.6875C145.986 33.6307 146.13 33.5455 146.249 33.4318C146.368 33.3182 146.459 33.179 146.522 33.0142L148.201 33.125C148.115 33.5284 147.941 33.8807 147.676 34.1818C147.415 34.4801 147.077 34.7131 146.662 34.8807C146.25 35.0455 145.775 35.1278 145.235 35.1278ZM151.239 31.2159V35H149.424V26.2727H151.188V29.6094H151.265C151.412 29.223 151.651 28.9205 151.98 28.7017C152.31 28.4801 152.723 28.3693 153.221 28.3693C153.675 28.3693 154.071 28.4688 154.409 28.6676C154.75 28.8636 155.015 29.1463 155.202 29.5156C155.392 29.8821 155.486 30.321 155.483 30.8324V35H153.668V31.1562C153.671 30.7528 153.569 30.4389 153.361 30.2145C153.157 29.9901 152.87 29.8778 152.5 29.8778C152.253 29.8778 152.034 29.9304 151.844 30.0355C151.657 30.1406 151.509 30.294 151.401 30.4957C151.296 30.6946 151.242 30.9347 151.239 31.2159ZM157.798 37.4545C157.568 37.4545 157.352 37.4361 157.151 37.3991C156.952 37.3651 156.787 37.321 156.656 37.267L157.065 35.9119C157.278 35.9773 157.47 36.0128 157.641 36.0185C157.814 36.0241 157.963 35.9844 158.088 35.8991C158.216 35.8139 158.32 35.669 158.399 35.4645L158.506 35.1875L156.158 28.4545H158.067L159.422 33.2614H159.49L160.858 28.4545H162.78L160.236 35.7074C160.114 36.0597 159.947 36.3665 159.737 36.6278C159.53 36.892 159.267 37.0952 158.949 37.2372C158.631 37.3821 158.247 37.4545 157.798 37.4545ZM167.489 26.2727V35H165.643V28.0241H165.592L163.594 29.277V27.6406L165.754 26.2727H167.489Z" fill="#FFFBEC"/>
</svg>
