<svg width="931" height="423" viewBox="0 0 931 423" fill="none" xmlns="http://www.w3.org/2000/svg">
<path d="M930 39C910.118 39 894 55.1177 894 75C894 94.8823 910.118 111 930 111V156C910.118 156 894 172.118 894 192C894 211.882 910.118 228 930 228V273C910.118 273 894 289.118 894 309C894 328.882 910.118 345 930 345V384H123C114.716 384 108 377.284 108 369V15C108 6.71573 114.716 0 123 0H930V39Z" fill="#B61E1D"/>
<path d="M107.8 167.079L107.8 369.177C107.8 377.462 114.516 384.177 122.8 384.177L335.172 384.177C335.172 384.177 265.157 379.62 238.172 349.845C212.595 321.623 239.167 285.511 214.672 256.345C194.641 232.494 162.59 231.137 138.672 214.579C119.172 201.079 107.8 167.079 107.8 167.079Z" fill="#9B3827"/>
<circle cx="159.5" cy="321.5" r="23.5" fill="#F9C6CF"/>
<circle cx="159.5" cy="74.5" r="23.5" fill="#F9C6CF"/>
<circle cx="159.5" cy="161.5" r="23.5" fill="#F9C6CF"/>
<circle cx="159.5" cy="241.5" r="23.5" fill="#F9C6CF"/>
<path d="M930.372 39.1992C930.248 39.198 930.124 39.1953 930 39.1953C910.118 39.1953 894 55.3131 894 75.1953C894 95.0776 910.118 111.195 930 111.195C930.124 111.195 930.248 111.192 930.372 111.19V156.199C930.248 156.198 930.124 156.195 930 156.195C918.124 156.195 907.592 161.947 901.035 170.815C900.529 170.429 900.018 170.054 899.5 169.695C875.583 153.137 843.531 151.78 823.5 127.93C799.005 98.7636 825.577 62.6516 800 34.4297C773.022 4.66233 703.036 0.0999828 703 0.0976562H930.372V39.1992Z" fill="#9B3827"/>
<path d="M281.15 94.41V126H273.455V112.995H261.485V126H253.79V94.41H261.485V106.785H273.455V94.41H281.15ZM310.375 113.04C310.375 113.76 310.33 114.51 310.24 115.29H292.825C292.945 116.85 293.44 118.05 294.31 118.89C295.21 119.7 296.305 120.105 297.595 120.105C299.515 120.105 300.85 119.295 301.6 117.675H309.79C309.37 119.325 308.605 120.81 307.495 122.13C306.415 123.45 305.05 124.485 303.4 125.235C301.75 125.985 299.905 126.36 297.865 126.36C295.405 126.36 293.215 125.835 291.295 124.785C289.375 123.735 287.875 122.235 286.795 120.285C285.715 118.335 285.175 116.055 285.175 113.445C285.175 110.835 285.7 108.555 286.75 106.605C287.83 104.655 289.33 103.155 291.25 102.105C293.17 101.055 295.375 100.53 297.865 100.53C300.295 100.53 302.455 101.04 304.345 102.06C306.235 103.08 307.705 104.535 308.755 106.425C309.835 108.315 310.375 110.52 310.375 113.04ZM302.5 111.015C302.5 109.695 302.05 108.645 301.15 107.865C300.25 107.085 299.125 106.695 297.775 106.695C296.485 106.695 295.39 107.07 294.49 107.82C293.62 108.57 293.08 109.635 292.87 111.015H302.5ZM322.13 92.7V126H314.435V92.7H322.13ZM335.401 92.7V126H327.706V92.7H335.401ZM352.408 126.36C349.948 126.36 347.728 125.835 345.748 124.785C343.798 123.735 342.253 122.235 341.113 120.285C340.003 118.335 339.448 116.055 339.448 113.445C339.448 110.865 340.018 108.6 341.157 106.65C342.298 104.67 343.858 103.155 345.838 102.105C347.818 101.055 350.038 100.53 352.498 100.53C354.958 100.53 357.178 101.055 359.158 102.105C361.138 103.155 362.698 104.67 363.838 106.65C364.978 108.6 365.548 110.865 365.548 113.445C365.548 116.025 364.963 118.305 363.793 120.285C362.653 122.235 361.078 123.735 359.068 124.785C357.088 125.835 354.868 126.36 352.408 126.36ZM352.408 119.7C353.878 119.7 355.123 119.16 356.143 118.08C357.193 117 357.718 115.455 357.718 113.445C357.718 111.435 357.208 109.89 356.188 108.81C355.198 107.73 353.968 107.19 352.498 107.19C350.998 107.19 349.753 107.73 348.763 108.81C347.773 109.86 347.278 111.405 347.278 113.445C347.278 115.455 347.758 117 348.718 118.08C349.708 119.16 350.938 119.7 352.408 119.7ZM379.755 93.285L378.855 114.84H372.33L371.43 93.285H379.755ZM375.705 126.36C374.355 126.36 373.245 125.97 372.375 125.19C371.535 124.38 371.115 123.39 371.115 122.22C371.115 121.02 371.535 120.015 372.375 119.205C373.245 118.395 374.355 117.99 375.705 117.99C377.025 117.99 378.105 118.395 378.945 119.205C379.815 120.015 380.25 121.02 380.25 122.22C380.25 123.39 379.815 124.38 378.945 125.19C378.105 125.97 377.025 126.36 375.705 126.36ZM404.483 94.41V126H396.788V94.41H404.483ZM411.815 94.41H419.69L414.65 106.47H409.475L411.815 94.41ZM456.25 100.62C459.37 100.62 461.845 101.565 463.675 103.455C465.535 105.345 466.465 107.97 466.465 111.33V126H458.815V112.365C458.815 110.745 458.38 109.5 457.51 108.63C456.67 107.73 455.5 107.28 454 107.28C452.5 107.28 451.315 107.73 450.445 108.63C449.605 109.5 449.185 110.745 449.185 112.365V126H441.535V112.365C441.535 110.745 441.1 109.5 440.23 108.63C439.39 107.73 438.22 107.28 436.72 107.28C435.22 107.28 434.035 107.73 433.165 108.63C432.325 109.5 431.905 110.745 431.905 112.365V126H424.21V100.89H431.905V104.04C432.685 102.99 433.705 102.165 434.965 101.565C436.225 100.935 437.65 100.62 439.24 100.62C441.13 100.62 442.81 101.025 444.28 101.835C445.78 102.645 446.95 103.8 447.79 105.3C448.66 103.92 449.845 102.795 451.345 101.925C452.845 101.055 454.48 100.62 456.25 100.62Z" fill="#DC8282"/>
<rect x="209.5" y="40.5" width="658" height="305" rx="18.5" stroke="#FFEBF0" stroke-width="3"/>
<rect x="699" y="317" width="141" height="50" fill="#B61E1D"/>
<path d="M719.5 331C719.5 331 720.011 338.711 723.146 341.949C726.041 344.937 733 346 733 346C733 346 726.041 347.063 723.146 350.051C720.011 353.289 719.5 361 719.5 361C719.5 361 718.989 353.289 715.854 350.051C712.959 347.063 706 346 706 346C706 346 712.959 344.937 715.854 341.949C718.989 338.711 719.5 331 719.5 331Z" fill="#FFF5EC"/>
<path d="M746.5 331C746.5 331 747.011 338.711 750.146 341.949C753.041 344.937 760 346 760 346C760 346 753.041 347.063 750.146 350.051C747.011 353.289 746.5 361 746.5 361C746.5 361 745.989 353.289 742.854 350.051C739.959 347.063 733 346 733 346C733 346 739.959 344.937 742.854 341.949C745.989 338.711 746.5 331 746.5 331Z" fill="#FFF5EC"/>
<path d="M783.5 320C783.5 320 784.39 333.109 789.847 338.613C794.886 343.694 807 345.5 807 345.5C807 345.5 794.886 347.306 789.847 352.387C784.39 357.891 783.5 371 783.5 371C783.5 371 782.61 357.891 777.153 352.387C772.114 347.306 760 345.5 760 345.5C760 345.5 772.114 343.694 777.153 338.613C782.61 333.109 783.5 320 783.5 320Z" fill="#FFF5EC"/>
<path d="M820.5 331C820.5 331 821.011 338.711 824.146 341.949C827.041 344.937 834 346 834 346C834 346 827.041 347.063 824.146 350.051C821.011 353.289 820.5 361 820.5 361C820.5 361 819.989 353.289 816.854 350.051C813.959 347.063 807 346 807 346C807 346 813.959 344.937 816.854 341.949C819.989 338.711 820.5 331 820.5 331Z" fill="#FFF5EC"/>
<rect x="467" y="261" width="354" height="45" fill="#F9C6CF"/>
<path d="M512.76 291V276.455H522.561V278.99H515.836V282.456H522.057V284.991H515.836V288.464H522.59V291H512.76ZM525.006 291V276.455H534.808V278.99H528.082V282.456H534.303V284.991H528.082V288.464H534.836V291H525.006ZM550.086 281.547H546.975C546.919 281.144 546.803 280.787 546.627 280.474C546.452 280.157 546.227 279.887 545.953 279.665C545.678 279.442 545.361 279.272 545.001 279.153C544.646 279.035 544.26 278.976 543.843 278.976C543.091 278.976 542.435 279.163 541.876 279.537C541.317 279.906 540.884 280.446 540.576 281.156C540.269 281.862 540.115 282.719 540.115 283.727C540.115 284.764 540.269 285.635 540.576 286.341C540.889 287.046 541.324 287.579 541.883 287.939C542.442 288.299 543.088 288.479 543.822 288.479C544.234 288.479 544.615 288.424 544.966 288.315C545.321 288.206 545.636 288.048 545.91 287.839C546.185 287.626 546.412 287.368 546.592 287.065C546.777 286.762 546.904 286.417 546.975 286.028L550.086 286.043C550.006 286.71 549.805 287.354 549.483 287.974C549.165 288.59 548.737 289.142 548.197 289.629C547.662 290.112 547.023 290.496 546.279 290.78C545.541 291.059 544.705 291.199 543.772 291.199C542.475 291.199 541.315 290.905 540.292 290.318C539.274 289.731 538.469 288.881 537.877 287.768C537.29 286.656 536.997 285.309 536.997 283.727C536.997 282.141 537.295 280.792 537.892 279.679C538.488 278.566 539.298 277.719 540.321 277.136C541.343 276.549 542.494 276.256 543.772 276.256C544.615 276.256 545.396 276.374 546.116 276.611C546.841 276.848 547.482 277.193 548.041 277.648C548.6 278.098 549.054 278.649 549.404 279.303C549.76 279.956 549.987 280.704 550.086 281.547ZM560.182 280.638C560.125 280.065 559.882 279.62 559.451 279.303C559.02 278.985 558.435 278.827 557.696 278.827C557.194 278.827 556.771 278.898 556.425 279.04C556.079 279.177 555.814 279.369 555.63 279.615C555.45 279.861 555.36 280.141 555.36 280.453C555.35 280.714 555.405 280.941 555.523 281.135C555.646 281.329 555.814 281.497 556.027 281.639C556.24 281.777 556.487 281.897 556.766 282.001C557.045 282.101 557.344 282.186 557.661 282.257L558.968 282.57C559.602 282.712 560.185 282.901 560.715 283.138C561.245 283.375 561.704 283.666 562.093 284.011C562.481 284.357 562.782 284.764 562.995 285.233C563.212 285.702 563.324 286.239 563.328 286.845C563.324 287.735 563.096 288.507 562.647 289.161C562.202 289.809 561.558 290.313 560.715 290.673C559.877 291.028 558.866 291.206 557.682 291.206C556.508 291.206 555.485 291.026 554.614 290.666C553.748 290.306 553.07 289.774 552.583 289.068C552.1 288.358 551.846 287.48 551.823 286.433H554.799C554.832 286.921 554.971 287.328 555.218 287.655C555.469 287.977 555.802 288.221 556.219 288.386C556.641 288.547 557.116 288.628 557.647 288.628C558.167 288.628 558.62 288.552 559.003 288.401C559.391 288.249 559.692 288.038 559.905 287.768C560.118 287.499 560.225 287.188 560.225 286.838C560.225 286.511 560.128 286.237 559.934 286.014C559.744 285.792 559.465 285.602 559.096 285.446C558.731 285.29 558.283 285.148 557.753 285.02L556.169 284.622C554.943 284.324 553.975 283.857 553.265 283.223C552.554 282.589 552.202 281.734 552.206 280.659C552.202 279.778 552.436 279.009 552.909 278.351C553.388 277.693 554.043 277.179 554.877 276.81C555.71 276.44 556.657 276.256 557.718 276.256C558.797 276.256 559.739 276.44 560.544 276.81C561.354 277.179 561.984 277.693 562.434 278.351C562.883 279.009 563.115 279.771 563.13 280.638H560.182ZM574.429 291.213C573.426 291.213 572.559 291.033 571.83 290.673C571.101 290.313 570.54 289.826 570.147 289.21C569.758 288.59 569.564 287.899 569.564 287.136C569.564 286.568 569.678 286.064 569.905 285.624C570.132 285.183 570.45 284.778 570.857 284.409C571.264 284.035 571.738 283.663 572.277 283.294L575.097 281.44C575.462 281.208 575.729 280.964 575.9 280.709C576.07 280.448 576.155 280.167 576.155 279.864C576.155 279.575 576.039 279.307 575.807 279.061C575.575 278.815 575.246 278.694 574.82 278.699C574.536 278.699 574.29 278.763 574.081 278.891C573.873 279.014 573.71 279.177 573.591 279.381C573.478 279.58 573.421 279.802 573.421 280.048C573.421 280.351 573.506 280.659 573.676 280.972C573.847 281.284 574.074 281.616 574.358 281.966C574.642 282.312 574.953 282.686 575.289 283.088L582.185 291H579.032L573.279 284.594C572.9 284.163 572.521 283.713 572.142 283.244C571.768 282.771 571.456 282.269 571.205 281.739C570.954 281.204 570.828 280.624 570.828 279.999C570.828 279.293 570.992 278.659 571.319 278.095C571.65 277.532 572.114 277.087 572.711 276.76C573.307 276.429 574.003 276.263 574.799 276.263C575.575 276.263 576.245 276.421 576.809 276.739C577.377 277.051 577.812 277.468 578.115 277.989C578.423 278.505 578.577 279.073 578.577 279.693C578.577 280.38 578.407 281.002 578.066 281.561C577.73 282.115 577.256 282.612 576.645 283.053L573.676 285.19C573.274 285.484 572.976 285.785 572.782 286.092C572.592 286.395 572.498 286.687 572.498 286.966C572.498 287.312 572.583 287.622 572.753 287.896C572.924 288.171 573.165 288.389 573.478 288.55C573.79 288.706 574.157 288.784 574.578 288.784C575.09 288.784 575.594 288.668 576.091 288.436C576.593 288.199 577.048 287.866 577.455 287.435C577.867 286.999 578.196 286.483 578.442 285.886C578.688 285.29 578.811 284.629 578.811 283.905H581.319C581.319 284.795 581.221 285.598 581.027 286.312C580.833 287.023 580.563 287.643 580.218 288.173C579.872 288.699 579.477 289.13 579.032 289.466C578.89 289.556 578.752 289.641 578.62 289.722C578.487 289.802 578.35 289.887 578.208 289.977C577.668 290.413 577.064 290.728 576.397 290.922C575.734 291.116 575.078 291.213 574.429 291.213ZM588.131 291V276.455H593.955C595.025 276.455 595.918 276.613 596.633 276.93C597.348 277.248 597.885 277.688 598.245 278.251C598.605 278.81 598.785 279.454 598.785 280.183C598.785 280.751 598.671 281.251 598.444 281.682C598.217 282.108 597.904 282.458 597.506 282.733C597.113 283.003 596.664 283.195 596.157 283.308V283.45C596.711 283.474 597.229 283.63 597.712 283.919C598.2 284.208 598.595 284.613 598.898 285.134C599.201 285.65 599.353 286.265 599.353 286.98C599.353 287.752 599.161 288.441 598.778 289.047C598.399 289.648 597.838 290.124 597.094 290.474C596.351 290.825 595.435 291 594.346 291H588.131ZM591.207 288.486H593.714C594.571 288.486 595.196 288.322 595.589 287.996C595.982 287.664 596.178 287.224 596.178 286.675C596.178 286.272 596.081 285.917 595.887 285.609C595.693 285.302 595.416 285.06 595.056 284.885C594.701 284.71 594.277 284.622 593.785 284.622H591.207V288.486ZM591.207 282.541H593.487C593.908 282.541 594.282 282.468 594.609 282.321C594.94 282.17 595.201 281.956 595.39 281.682C595.584 281.407 595.681 281.078 595.681 280.695C595.681 280.169 595.494 279.745 595.12 279.423C594.751 279.101 594.225 278.94 593.543 278.94H591.207V282.541ZM601.297 291V280.091H604.323V291H601.297ZM602.817 278.685C602.367 278.685 601.981 278.536 601.659 278.237C601.342 277.934 601.184 277.572 601.184 277.151C601.184 276.734 601.342 276.376 601.659 276.078C601.981 275.775 602.367 275.624 602.817 275.624C603.267 275.624 603.65 275.775 603.968 276.078C604.29 276.376 604.451 276.734 604.451 277.151C604.451 277.572 604.29 277.934 603.968 278.237C603.65 278.536 603.267 278.685 602.817 278.685ZM611.675 291.213C610.572 291.213 609.618 290.979 608.813 290.51C608.013 290.036 607.395 289.378 606.96 288.536C606.524 287.688 606.306 286.705 606.306 285.588C606.306 284.461 606.524 283.476 606.96 282.634C607.395 281.786 608.013 281.128 608.813 280.659C609.618 280.186 610.572 279.949 611.675 279.949C612.779 279.949 613.73 280.186 614.531 280.659C615.335 281.128 615.956 281.786 616.391 282.634C616.827 283.476 617.045 284.461 617.045 285.588C617.045 286.705 616.827 287.688 616.391 288.536C615.956 289.378 615.335 290.036 614.531 290.51C613.73 290.979 612.779 291.213 611.675 291.213ZM611.69 288.869C612.192 288.869 612.611 288.727 612.947 288.443C613.283 288.154 613.536 287.761 613.707 287.264C613.882 286.767 613.969 286.201 613.969 285.567C613.969 284.932 613.882 284.366 613.707 283.869C613.536 283.372 613.283 282.979 612.947 282.69C612.611 282.402 612.192 282.257 611.69 282.257C611.183 282.257 610.757 282.402 610.411 282.69C610.07 282.979 609.812 283.372 609.637 283.869C609.467 284.366 609.381 284.932 609.381 285.567C609.381 286.201 609.467 286.767 609.637 287.264C609.812 287.761 610.07 288.154 610.411 288.443C610.757 288.727 611.183 288.869 611.69 288.869ZM619.069 291V276.455H628.87V278.99H622.144V282.456H628.366V284.991H622.144V288.464H628.898V291H619.069ZM645.227 293.159C643.716 293.159 642.371 292.953 641.192 292.541C640.013 292.134 639.017 291.537 638.202 290.751C637.388 289.961 636.768 288.997 636.342 287.861C635.915 286.724 635.702 285.432 635.702 283.983C635.702 282.553 635.915 281.256 636.342 280.091C636.772 278.926 637.4 277.927 638.224 277.094C639.048 276.256 640.054 275.612 641.242 275.162C642.435 274.712 643.794 274.487 645.319 274.487C646.73 274.487 647.989 274.693 649.097 275.105C650.21 275.517 651.152 276.104 651.924 276.866C652.701 277.624 653.29 278.526 653.692 279.572C654.1 280.614 654.301 281.767 654.296 283.031C654.301 283.902 654.225 284.703 654.069 285.432C653.913 286.161 653.666 286.798 653.33 287.342C652.999 287.882 652.563 288.311 652.023 288.628C651.484 288.94 650.83 289.118 650.063 289.161C649.514 289.203 649.069 289.163 648.728 289.04C648.387 288.917 648.127 288.734 647.947 288.493C647.772 288.247 647.658 287.96 647.606 287.634H647.521C647.407 287.918 647.184 288.176 646.853 288.408C646.522 288.635 646.117 288.812 645.638 288.94C645.165 289.063 644.661 289.108 644.126 289.075C643.567 289.042 643.037 288.912 642.535 288.685C642.038 288.457 641.595 288.128 641.207 287.697C640.823 287.267 640.52 286.734 640.298 286.099C640.08 285.465 639.969 284.731 639.964 283.898C639.969 283.074 640.085 282.357 640.312 281.746C640.544 281.135 640.849 280.621 641.228 280.205C641.612 279.788 642.038 279.461 642.506 279.224C642.975 278.988 643.446 278.836 643.92 278.77C644.455 278.689 644.961 278.689 645.44 278.77C645.918 278.85 646.32 278.981 646.647 279.161C646.978 279.34 647.184 279.535 647.265 279.743H647.364V278.947H649.587V285.879C649.592 286.206 649.665 286.459 649.808 286.639C649.95 286.819 650.141 286.909 650.383 286.909C650.71 286.909 650.982 286.765 651.2 286.476C651.422 286.187 651.588 285.744 651.697 285.148C651.81 284.551 651.867 283.791 651.867 282.868C651.867 281.978 651.749 281.196 651.512 280.524C651.28 279.847 650.953 279.272 650.532 278.798C650.115 278.32 649.63 277.932 649.076 277.634C648.522 277.335 647.921 277.117 647.272 276.98C646.628 276.843 645.965 276.774 645.283 276.774C644.104 276.774 643.075 276.954 642.194 277.314C641.313 277.669 640.579 278.169 639.992 278.812C639.405 279.456 638.965 280.212 638.671 281.078C638.382 281.94 638.236 282.88 638.231 283.898C638.236 285.02 638.392 286.014 638.7 286.881C639.012 287.742 639.471 288.467 640.077 289.054C640.683 289.641 641.432 290.086 642.322 290.389C643.212 290.692 644.235 290.844 645.39 290.844C645.934 290.844 646.467 290.806 646.988 290.73C647.509 290.65 647.98 290.555 648.401 290.446C648.823 290.332 649.161 290.223 649.417 290.119L650.12 292.179C649.822 292.349 649.417 292.508 648.906 292.655C648.399 292.806 647.826 292.927 647.187 293.017C646.552 293.112 645.899 293.159 645.227 293.159ZM644.9 286.739C645.478 286.739 645.937 286.627 646.278 286.405C646.623 286.182 646.87 285.853 647.016 285.418C647.168 284.977 647.239 284.435 647.229 283.791C647.225 283.223 647.151 282.742 647.009 282.349C646.872 281.952 646.633 281.651 646.292 281.447C645.956 281.239 645.487 281.135 644.886 281.135C644.36 281.135 643.913 281.246 643.543 281.469C643.179 281.691 642.899 282.004 642.705 282.406C642.516 282.804 642.419 283.273 642.414 283.812C642.419 284.314 642.499 284.79 642.656 285.24C642.812 285.685 643.07 286.047 643.43 286.327C643.79 286.601 644.28 286.739 644.9 286.739ZM670.163 276.455H673.238V285.901C673.238 286.961 672.985 287.889 672.478 288.685C671.976 289.48 671.273 290.1 670.369 290.545C669.464 290.986 668.411 291.206 667.208 291.206C666.001 291.206 664.945 290.986 664.04 290.545C663.136 290.1 662.433 289.48 661.931 288.685C661.429 287.889 661.178 286.961 661.178 285.901V276.455H664.254V285.638C664.254 286.192 664.374 286.684 664.616 287.115C664.862 287.546 665.208 287.884 665.653 288.131C666.098 288.377 666.616 288.5 667.208 288.5C667.805 288.5 668.323 288.377 668.763 288.131C669.209 287.884 669.552 287.546 669.793 287.115C670.04 286.684 670.163 286.192 670.163 285.638V276.455ZM688.602 281.547H685.491C685.434 281.144 685.318 280.787 685.143 280.474C684.968 280.157 684.743 279.887 684.468 279.665C684.194 279.442 683.877 279.272 683.517 279.153C683.162 279.035 682.776 278.976 682.359 278.976C681.606 278.976 680.95 279.163 680.392 279.537C679.833 279.906 679.4 280.446 679.092 281.156C678.784 281.862 678.63 282.719 678.63 283.727C678.63 284.764 678.784 285.635 679.092 286.341C679.404 287.046 679.84 287.579 680.399 287.939C680.958 288.299 681.604 288.479 682.338 288.479C682.75 288.479 683.131 288.424 683.481 288.315C683.836 288.206 684.151 288.048 684.426 287.839C684.7 287.626 684.928 287.368 685.108 287.065C685.292 286.762 685.42 286.417 685.491 286.028L688.602 286.043C688.521 286.71 688.32 287.354 687.998 287.974C687.681 288.59 687.252 289.142 686.713 289.629C686.178 290.112 685.538 290.496 684.795 290.78C684.056 291.059 683.221 291.199 682.288 291.199C680.991 291.199 679.831 290.905 678.808 290.318C677.79 289.731 676.985 288.881 676.393 287.768C675.806 286.656 675.512 285.309 675.512 283.727C675.512 282.141 675.811 280.792 676.407 279.679C677.004 278.566 677.814 277.719 678.836 277.136C679.859 276.549 681.01 276.256 682.288 276.256C683.131 276.256 683.912 276.374 684.632 276.611C685.356 276.848 685.998 277.193 686.556 277.648C687.115 278.098 687.57 278.649 687.92 279.303C688.275 279.956 688.502 280.704 688.602 281.547ZM695.436 291V276.455H701.26C702.33 276.455 703.223 276.613 703.938 276.93C704.652 277.248 705.19 277.688 705.55 278.251C705.91 278.81 706.089 279.454 706.089 280.183C706.089 280.751 705.976 281.251 705.749 281.682C705.521 282.108 705.209 282.458 704.811 282.733C704.418 283.003 703.968 283.195 703.462 283.308V283.45C704.016 283.474 704.534 283.63 705.017 283.919C705.505 284.208 705.9 284.613 706.203 285.134C706.506 285.65 706.658 286.265 706.658 286.98C706.658 287.752 706.466 288.441 706.082 289.047C705.704 289.648 705.143 290.124 704.399 290.474C703.656 290.825 702.74 291 701.651 291H695.436ZM698.511 288.486H701.018C701.875 288.486 702.5 288.322 702.893 287.996C703.286 287.664 703.483 287.224 703.483 286.675C703.483 286.272 703.386 285.917 703.192 285.609C702.998 285.302 702.721 285.06 702.361 284.885C702.006 284.71 701.582 284.622 701.089 284.622H698.511V288.486ZM698.511 282.541H700.791C701.213 282.541 701.587 282.468 701.913 282.321C702.245 282.17 702.505 281.956 702.695 281.682C702.889 281.407 702.986 281.078 702.986 280.695C702.986 280.169 702.799 279.745 702.425 279.423C702.055 279.101 701.53 278.94 700.848 278.94H698.511V282.541ZM713.574 291.213C712.451 291.213 711.485 290.986 710.676 290.531C709.871 290.072 709.251 289.423 708.815 288.585C708.379 287.742 708.162 286.746 708.162 285.595C708.162 284.473 708.379 283.488 708.815 282.641C709.251 281.793 709.864 281.133 710.654 280.659C711.45 280.186 712.383 279.949 713.453 279.949C714.172 279.949 714.842 280.065 715.463 280.297C716.088 280.524 716.632 280.867 717.096 281.327C717.565 281.786 717.93 282.364 718.19 283.06C718.45 283.751 718.581 284.561 718.581 285.489V286.32H709.369V284.445H715.733C715.733 284.009 715.638 283.623 715.449 283.287C715.259 282.951 714.996 282.688 714.66 282.499C714.329 282.304 713.943 282.207 713.502 282.207C713.043 282.207 712.636 282.314 712.281 282.527C711.931 282.735 711.656 283.017 711.457 283.372C711.258 283.723 711.156 284.113 711.152 284.544V286.327C711.152 286.866 711.251 287.333 711.45 287.726C711.654 288.119 711.94 288.422 712.309 288.635C712.679 288.848 713.117 288.955 713.623 288.955C713.959 288.955 714.267 288.907 714.547 288.812C714.826 288.718 715.065 288.576 715.264 288.386C715.463 288.197 715.614 287.965 715.718 287.69L718.517 287.875C718.375 288.547 718.083 289.134 717.643 289.636C717.208 290.134 716.644 290.522 715.953 290.801C715.266 291.076 714.473 291.213 713.574 291.213ZM720.555 291V280.091H723.488V281.994H723.602C723.801 281.317 724.135 280.806 724.603 280.46C725.072 280.11 725.612 279.935 726.223 279.935C726.374 279.935 726.538 279.944 726.713 279.963C726.888 279.982 727.042 280.008 727.174 280.041V282.726C727.032 282.683 726.836 282.645 726.585 282.612C726.334 282.579 726.104 282.562 725.896 282.562C725.451 282.562 725.053 282.66 724.703 282.854C724.357 283.043 724.083 283.308 723.879 283.649C723.68 283.99 723.581 284.383 723.581 284.828V291H720.555ZM731.48 287.861L731.487 284.232H731.928L735.422 280.091H738.895L734.2 285.574H733.483L731.48 287.861ZM728.739 291V276.455H731.764V291H728.739ZM735.557 291L732.347 286.249L734.364 284.111L739.101 291H735.557ZM744.902 291.213C743.779 291.213 742.814 290.986 742.004 290.531C741.199 290.072 740.579 289.423 740.143 288.585C739.708 287.742 739.49 286.746 739.49 285.595C739.49 284.473 739.708 283.488 740.143 282.641C740.579 281.793 741.192 281.133 741.983 280.659C742.778 280.186 743.711 279.949 744.781 279.949C745.501 279.949 746.171 280.065 746.791 280.297C747.416 280.524 747.96 280.867 748.424 281.327C748.893 281.786 749.258 282.364 749.518 283.06C749.779 283.751 749.909 284.561 749.909 285.489V286.32H740.697V284.445H747.061C747.061 284.009 746.966 283.623 746.777 283.287C746.587 282.951 746.324 282.688 745.988 282.499C745.657 282.304 745.271 282.207 744.831 282.207C744.371 282.207 743.964 282.314 743.609 282.527C743.259 282.735 742.984 283.017 742.785 283.372C742.586 283.723 742.484 284.113 742.48 284.544V286.327C742.48 286.866 742.579 287.333 742.778 287.726C742.982 288.119 743.268 288.422 743.637 288.635C744.007 288.848 744.445 288.955 744.951 288.955C745.288 288.955 745.595 288.907 745.875 288.812C746.154 288.718 746.393 288.576 746.592 288.386C746.791 288.197 746.942 287.965 747.047 287.69L749.845 287.875C749.703 288.547 749.412 289.134 748.971 289.636C748.536 290.134 747.972 290.522 747.281 290.801C746.594 291.076 745.801 291.213 744.902 291.213ZM754.909 276.455V291H751.883V276.455H754.909ZM762.304 291.213C761.182 291.213 760.216 290.986 759.406 290.531C758.601 290.072 757.981 289.423 757.545 288.585C757.11 287.742 756.892 286.746 756.892 285.595C756.892 284.473 757.11 283.488 757.545 282.641C757.981 281.793 758.594 281.133 759.385 280.659C760.18 280.186 761.113 279.949 762.183 279.949C762.903 279.949 763.573 280.065 764.193 280.297C764.818 280.524 765.363 280.867 765.827 281.327C766.295 281.786 766.66 282.364 766.92 283.06C767.181 283.751 767.311 284.561 767.311 285.489V286.32H758.099V284.445H764.463C764.463 284.009 764.368 283.623 764.179 283.287C763.99 282.951 763.727 282.688 763.391 282.499C763.059 282.304 762.673 282.207 762.233 282.207C761.774 282.207 761.366 282.314 761.011 282.527C760.661 282.735 760.386 283.017 760.188 283.372C759.989 283.723 759.887 284.113 759.882 284.544V286.327C759.882 286.866 759.982 287.333 760.18 287.726C760.384 288.119 760.67 288.422 761.04 288.635C761.409 288.848 761.847 288.955 762.354 288.955C762.69 288.955 762.998 288.907 763.277 288.812C763.556 288.718 763.795 288.576 763.994 288.386C764.193 288.197 764.345 287.965 764.449 287.69L767.247 287.875C767.105 288.547 766.814 289.134 766.374 289.636C765.938 290.134 765.375 290.522 764.683 290.801C763.997 291.076 763.204 291.213 762.304 291.213ZM770.86 295.091C770.477 295.091 770.117 295.06 769.781 294.999C769.449 294.942 769.175 294.868 768.957 294.778L769.639 292.52C769.994 292.629 770.314 292.688 770.598 292.697C770.886 292.707 771.135 292.641 771.343 292.499C771.556 292.357 771.729 292.115 771.862 291.774L772.039 291.312L768.126 280.091H771.308L773.566 288.102H773.68L775.96 280.091H779.163L774.923 292.179C774.719 292.766 774.442 293.277 774.092 293.713C773.746 294.153 773.308 294.492 772.778 294.729C772.248 294.97 771.609 295.091 770.86 295.091Z" fill="#B31A16"/>
</svg>
