<svg width="823" height="384" viewBox="0 0 823 384" fill="none" xmlns="http://www.w3.org/2000/svg">
<path d="M822 39C802.118 39 786 55.1177 786 75C786 94.8822 802.118 111 822 111V156C802.118 156 786 172.118 786 192C786 211.882 802.118 228 822 228V273C802.118 273 786 289.118 786 309C786 328.882 802.118 345 822 345V384H15C6.71574 384 0 377.284 0 369V15C0 6.71573 6.71573 0 15 0H822V39Z" fill="#B61E1D"/>
<circle cx="51.4999" cy="321.5" r="23.5" fill="#F9C6CF"/>
<circle cx="51.4999" cy="74.5" r="23.5" fill="#F9C6CF"/>
<circle cx="51.4999" cy="161.5" r="23.5" fill="#F9C6CF"/>
<circle cx="51.4999" cy="241.5" r="23.5" fill="#F9C6CF"/>
<path d="M822.372 39.1992C822.248 39.198 822.124 39.1953 822 39.1953C802.118 39.1953 786 55.3131 786 75.1953C786 95.0776 802.118 111.195 822 111.195C822.124 111.195 822.248 111.192 822.372 111.19V156.199C822.248 156.198 822.124 156.195 822 156.195C810.124 156.195 799.592 161.947 793.035 170.815C792.529 170.429 792.018 170.054 791.5 169.695C767.583 153.137 735.531 151.78 715.5 127.93C691.005 98.7636 717.577 62.6516 692 34.4297C665.022 4.66233 595.036 0.0999828 595 0.0976562H822.372V39.1992Z" fill="#9B3827"/>
<rect x="101.5" y="40.5" width="658" height="305" rx="18.5" stroke="#FFEBF0" stroke-width="3"/>
<rect x="591" y="317" width="141" height="50" fill="#B61E1D"/>
<path d="M611.5 331C611.5 331 612.011 338.711 615.146 341.949C618.041 344.937 625 346 625 346C625 346 618.041 347.063 615.146 350.051C612.011 353.289 611.5 361 611.5 361C611.5 361 610.989 353.289 607.854 350.051C604.959 347.063 598 346 598 346C598 346 604.959 344.937 607.854 341.949C610.989 338.711 611.5 331 611.5 331Z" fill="#FFF5EC"/>
<path d="M638.5 331C638.5 331 639.011 338.711 642.146 341.949C645.041 344.937 652 346 652 346C652 346 645.041 347.063 642.146 350.051C639.011 353.289 638.5 361 638.5 361C638.5 361 637.989 353.289 634.854 350.051C631.959 347.063 625 346 625 346C625 346 631.959 344.937 634.854 341.949C637.989 338.711 638.5 331 638.5 331Z" fill="#FFF5EC"/>
<path d="M675.5 320C675.5 320 676.39 333.109 681.847 338.613C686.886 343.694 699 345.5 699 345.5C699 345.5 686.886 347.306 681.847 352.387C676.39 357.891 675.5 371 675.5 371C675.5 371 674.611 357.891 669.153 352.387C664.114 347.306 652 345.5 652 345.5C652 345.5 664.114 343.694 669.153 338.613C674.611 333.109 675.5 320 675.5 320Z" fill="#FFF5EC"/>
<path d="M712.5 331C712.5 331 713.011 338.711 716.146 341.949C719.041 344.937 726 346 726 346C726 346 719.041 347.063 716.146 350.051C713.011 353.289 712.5 361 712.5 361C712.5 361 711.989 353.289 708.854 350.051C705.959 347.063 699 346 699 346C699 346 705.959 344.937 708.854 341.949C711.989 338.711 712.5 331 712.5 331Z" fill="#FFF5EC"/>
</svg>
