<svg width="931" height="498" viewBox="0 0 931 498" fill="none" xmlns="http://www.w3.org/2000/svg">
<path d="M930 39C910.118 39 894 55.1177 894 75C894 94.8823 910.118 111 930 111V156C910.118 156 894 172.118 894 192C894 211.882 910.118 228 930 228V273C910.118 273 894 289.118 894 309C894 328.882 910.118 345 930 345V384H123C114.716 384 108 377.284 108 369V15C108 6.71573 114.716 0 123 0H930V39Z" fill="#B61E1D"/>
<path d="M107.8 167.079L107.8 369.177C107.8 377.461 114.516 384.177 122.8 384.177L335.172 384.177C335.172 384.177 265.157 379.62 238.172 349.845C212.595 321.623 239.167 285.511 214.672 256.345C194.641 232.494 162.59 231.137 138.672 214.579C119.172 201.079 107.8 167.079 107.8 167.079Z" fill="#9B3827"/>
<circle cx="159.5" cy="321.5" r="23.5" fill="#F9C6CF"/>
<circle cx="159.5" cy="74.5" r="23.5" fill="#F9C6CF"/>
<circle cx="159.5" cy="161.5" r="23.5" fill="#F9C6CF"/>
<circle cx="159.5" cy="241.5" r="23.5" fill="#F9C6CF"/>
<path d="M930.372 39.1992C930.248 39.198 930.124 39.1953 930 39.1953C910.118 39.1953 894 55.3131 894 75.1953C894 95.0776 910.118 111.195 930 111.195C930.124 111.195 930.248 111.192 930.372 111.19V156.199C930.248 156.198 930.124 156.195 930 156.195C918.124 156.195 907.592 161.947 901.035 170.815C900.529 170.429 900.018 170.054 899.5 169.695C875.583 153.137 843.531 151.78 823.5 127.93C799.005 98.7636 825.577 62.6516 800 34.4297C773.022 4.66233 703.036 0.0999828 703 0.0976562H930.372V39.1992Z" fill="#9B3827"/>
<rect x="209.5" y="40.5" width="658" height="305" rx="18.5" stroke="#FFEBF0" stroke-width="3"/>
<rect x="699" y="317" width="141" height="50" fill="#B61E1D"/>
<path d="M719.5 331C719.5 331 720.011 338.711 723.146 341.949C726.041 344.937 733 346 733 346C733 346 726.041 347.063 723.146 350.051C720.011 353.289 719.5 361 719.5 361C719.5 361 718.989 353.289 715.854 350.051C712.959 347.063 706 346 706 346C706 346 712.959 344.937 715.854 341.949C718.989 338.711 719.5 331 719.5 331Z" fill="#FFF5EC"/>
<path d="M746.5 331C746.5 331 747.011 338.711 750.146 341.949C753.041 344.937 760 346 760 346C760 346 753.041 347.063 750.146 350.051C747.011 353.289 746.5 361 746.5 361C746.5 361 745.989 353.289 742.854 350.051C739.959 347.063 733 346 733 346C733 346 739.959 344.937 742.854 341.949C745.989 338.711 746.5 331 746.5 331Z" fill="#FFF5EC"/>
<path d="M783.5 320C783.5 320 784.39 333.109 789.847 338.613C794.886 343.694 807 345.5 807 345.5C807 345.5 794.886 347.306 789.847 352.387C784.39 357.891 783.5 371 783.5 371C783.5 371 782.61 357.891 777.153 352.387C772.114 347.306 760 345.5 760 345.5C760 345.5 772.114 343.694 777.153 338.613C782.61 333.109 783.5 320 783.5 320Z" fill="#FFF5EC"/>
<path d="M820.5 331C820.5 331 821.011 338.711 824.146 341.949C827.041 344.937 834 346 834 346C834 346 827.041 347.063 824.146 350.051C821.011 353.289 820.5 361 820.5 361C820.5 361 819.989 353.289 816.854 350.051C813.959 347.063 807 346 807 346C807 346 813.959 344.937 816.854 341.949C819.989 338.711 820.5 331 820.5 331Z" fill="#FFF5EC"/>
</svg>
