<svg width="600" height="480" viewBox="0 0 600 480" fill="none" xmlns="http://www.w3.org/2000/svg">
<rect x="46.5" y="298.5" width="550" height="178" rx="18.5" fill="#FFFDFD" stroke="#B31A16" stroke-width="7"/>
<rect x="46.5" y="3.5" width="547" height="220" rx="18.5" fill="#FFFDFD" stroke="#B31A16" stroke-width="7"/>
<rect x="50" y="124" width="498" height="273" fill="#FFFDFD"/>
<rect x="522" y="235" width="51" height="51" rx="25.5" fill="#B31A16"/>
<rect x="76" y="30" width="178" height="45" rx="22.5" fill="#B31A16"/>
<path d="M117.791 63.0909V57.2528H117.699C117.557 57.5559 117.356 57.8565 117.095 58.1548C116.839 58.4484 116.506 58.6922 116.094 58.8864C115.687 59.0805 115.189 59.1776 114.602 59.1776C113.774 59.1776 113.023 58.9645 112.351 58.5384C111.683 58.1075 111.153 57.4754 110.76 56.642C110.372 55.804 110.178 54.7765 110.178 53.5597C110.178 52.3097 110.379 51.2704 110.781 50.4418C111.184 49.6084 111.719 48.9858 112.386 48.5739C113.059 48.1572 113.795 47.9489 114.595 47.9489C115.206 47.9489 115.715 48.053 116.122 48.2614C116.534 48.465 116.866 48.7206 117.116 49.0284C117.372 49.3314 117.566 49.6297 117.699 49.9233H117.827V48.0909H120.81V63.0909H117.791ZM115.561 56.7699C116.049 56.7699 116.461 56.6373 116.797 56.3722C117.138 56.1023 117.398 55.7259 117.578 55.2429C117.763 54.7599 117.855 54.1941 117.855 53.5455C117.855 52.8968 117.765 52.3333 117.585 51.8551C117.405 51.3769 117.145 51.0076 116.804 50.7472C116.463 50.4867 116.049 50.3565 115.561 50.3565C115.064 50.3565 114.645 50.4915 114.304 50.7614C113.963 51.0312 113.705 51.4053 113.53 51.8835C113.355 52.3617 113.267 52.9157 113.267 53.5455C113.267 54.1799 113.355 54.741 113.53 55.2287C113.71 55.7116 113.968 56.0904 114.304 56.3651C114.645 56.6349 115.064 56.7699 115.561 56.7699ZM130.234 54.3551V48.0909H133.26V59H130.355V57.0185H130.241C129.995 57.6577 129.586 58.1714 129.013 58.5597C128.445 58.9479 127.751 59.142 126.932 59.142C126.203 59.142 125.561 58.9763 125.007 58.6449C124.453 58.3134 124.02 57.8423 123.707 57.2315C123.4 56.6207 123.243 55.8892 123.239 55.0369V48.0909H126.264V54.4972C126.269 55.1411 126.442 55.6501 126.783 56.0241C127.124 56.3982 127.58 56.5852 128.153 56.5852C128.518 56.5852 128.859 56.5024 129.176 56.3366C129.493 56.1662 129.749 55.9152 129.943 55.5838C130.142 55.2524 130.239 54.8428 130.234 54.3551ZM135.68 59V48.0909H138.706V59H135.68ZM137.2 46.6847C136.75 46.6847 136.364 46.5355 136.042 46.2372C135.725 45.9342 135.566 45.572 135.566 45.1506C135.566 44.7339 135.725 44.3764 136.042 44.0781C136.364 43.7751 136.75 43.6236 137.2 43.6236C137.65 43.6236 138.033 43.7751 138.35 44.0781C138.672 44.3764 138.833 44.7339 138.833 45.1506C138.833 45.572 138.672 45.9342 138.35 46.2372C138.033 46.5355 137.65 46.6847 137.2 46.6847ZM146.058 59.2131C144.941 59.2131 143.98 58.9763 143.175 58.5028C142.375 58.0246 141.759 57.3617 141.328 56.5142C140.902 55.6667 140.689 54.6913 140.689 53.5881C140.689 52.4706 140.904 51.4905 141.335 50.6477C141.771 49.8002 142.389 49.1397 143.189 48.6662C143.989 48.188 144.941 47.9489 146.044 47.9489C146.996 47.9489 147.829 48.1217 148.544 48.4673C149.259 48.813 149.825 49.2983 150.241 49.9233C150.658 50.5483 150.888 51.2822 150.93 52.125H148.075C147.995 51.5805 147.782 51.1425 147.436 50.8111C147.095 50.4749 146.648 50.3068 146.094 50.3068C145.625 50.3068 145.215 50.4347 144.865 50.6903C144.519 50.9413 144.25 51.3082 144.055 51.7912C143.861 52.2741 143.764 52.8589 143.764 53.5455C143.764 54.2415 143.859 54.8333 144.048 55.321C144.242 55.8087 144.515 56.1804 144.865 56.4361C145.215 56.6918 145.625 56.8196 146.094 56.8196C146.439 56.8196 146.75 56.7486 147.024 56.6065C147.304 56.4645 147.533 56.2585 147.713 55.9886C147.898 55.714 148.018 55.3849 148.075 55.0014H150.93C150.883 55.8348 150.656 56.5687 150.249 57.2031C149.846 57.8329 149.29 58.3253 148.58 58.6804C147.869 59.0355 147.029 59.2131 146.058 59.2131ZM155.609 55.8608L155.616 52.2315H156.056L159.551 48.0909H163.024L158.329 53.5739H157.612L155.609 55.8608ZM152.868 59V44.4545H155.893V59H152.868ZM159.686 59L156.475 54.2486L158.493 52.1108L163.23 59H159.686ZM172.163 44.4545V59H169.137V44.4545H172.163ZM174.586 59V48.0909H177.612V59H174.586ZM176.106 46.6847C175.656 46.6847 175.27 46.5355 174.949 46.2372C174.631 45.9342 174.473 45.572 174.473 45.1506C174.473 44.7339 174.631 44.3764 174.949 44.0781C175.27 43.7751 175.656 43.6236 176.106 43.6236C176.556 43.6236 176.94 43.7751 177.257 44.0781C177.579 44.3764 177.74 44.7339 177.74 45.1506C177.74 45.572 177.579 45.9342 177.257 46.2372C176.94 46.5355 176.556 46.6847 176.106 46.6847ZM183.061 52.6932V59H180.036V48.0909H182.919V50.0156H183.047C183.288 49.3812 183.693 48.8793 184.261 48.5099C184.83 48.1359 185.518 47.9489 186.328 47.9489C187.086 47.9489 187.746 48.1146 188.31 48.446C188.873 48.7775 189.311 49.2509 189.624 49.8665C189.936 50.4773 190.092 51.2064 190.092 52.054V59H187.067V52.5938C187.071 51.9261 186.901 51.4053 186.555 51.0312C186.21 50.6525 185.734 50.4631 185.128 50.4631C184.721 50.4631 184.361 50.5507 184.048 50.7259C183.741 50.901 183.499 51.1567 183.324 51.4929C183.153 51.8243 183.066 52.2244 183.061 52.6932ZM195.218 55.8608L195.225 52.2315H195.666L199.16 48.0909H202.633L197.939 53.5739H197.221L195.218 55.8608ZM192.477 59V44.4545H195.502V59H192.477ZM199.295 59L196.085 54.2486L198.102 52.1108L202.839 59H199.295ZM213.194 51.2017L210.424 51.3722C210.377 51.1354 210.275 50.9223 210.119 50.733C209.963 50.5388 209.757 50.3849 209.501 50.2713C209.25 50.1529 208.949 50.0938 208.599 50.0938C208.13 50.0938 207.735 50.1932 207.413 50.392C207.091 50.5862 206.93 50.8466 206.93 51.1733C206.93 51.4337 207.034 51.6539 207.243 51.8338C207.451 52.0137 207.808 52.1581 208.315 52.267L210.289 52.6648C211.35 52.8826 212.141 53.233 212.662 53.7159C213.182 54.1989 213.443 54.8333 213.443 55.6193C213.443 56.3343 213.232 56.9616 212.811 57.5014C212.394 58.0412 211.821 58.4626 211.092 58.7656C210.368 59.0639 209.532 59.2131 208.585 59.2131C207.141 59.2131 205.99 58.9124 205.133 58.3111C204.281 57.705 203.781 56.8812 203.635 55.8395L206.61 55.6832C206.7 56.1236 206.918 56.4598 207.264 56.6918C207.609 56.919 208.052 57.0327 208.592 57.0327C209.122 57.0327 209.548 56.9309 209.87 56.7273C210.197 56.5189 210.363 56.2514 210.368 55.9247C210.363 55.6501 210.247 55.4252 210.02 55.25C209.792 55.0701 209.442 54.9328 208.968 54.8381L207.079 54.4616C206.014 54.2486 205.221 53.8793 204.7 53.3537C204.184 52.8281 203.926 52.1581 203.926 51.3438C203.926 50.643 204.115 50.0393 204.494 49.5327C204.877 49.026 205.415 48.6354 206.106 48.3608C206.802 48.0862 207.617 47.9489 208.549 47.9489C209.927 47.9489 211.011 48.2401 211.802 48.8224C212.598 49.4048 213.062 50.1979 213.194 51.2017ZM218.963 44.4545L218.686 54.6392H216.087L215.803 44.4545H218.963ZM217.386 59.1847C216.918 59.1847 216.515 59.0189 216.179 58.6875C215.843 58.3513 215.677 57.9489 215.682 57.4801C215.677 57.0161 215.843 56.6184 216.179 56.2869C216.515 55.9555 216.918 55.7898 217.386 55.7898C217.836 55.7898 218.232 55.9555 218.572 56.2869C218.913 56.6184 219.086 57.0161 219.091 57.4801C219.086 57.7926 219.003 58.0791 218.842 58.3395C218.686 58.5952 218.48 58.8011 218.224 58.9574C217.969 59.1089 217.689 59.1847 217.386 59.1847Z" fill="#FFFDFD"/>
<rect x="155" y="112" width="339" height="60" rx="13" fill="#FFEBF0"/>
<rect x="155" y="189" width="339" height="60" rx="13" fill="#FFEBF0"/>
<rect x="155" y="266" width="339" height="60" rx="13" fill="#FFEBF0"/>
<rect x="155" y="343" width="339" height="60" rx="13" fill="#FFEBF0"/>
<path d="M167.896 154V132.182H182.598V135.985H172.509V141.184H181.842V144.987H172.509V150.197H182.641V154H167.896ZM189.973 137.636L192.977 143.357L196.056 137.636H200.711L195.971 145.818L200.839 154H196.205L192.977 148.343L189.802 154H185.115L189.973 145.818L185.285 137.636H189.973ZM203.407 160.136V137.636H207.881V140.385H208.084C208.282 139.945 208.57 139.497 208.947 139.043C209.33 138.581 209.827 138.197 210.438 137.892C211.056 137.58 211.823 137.423 212.739 137.423C213.932 137.423 215.033 137.736 216.042 138.361C217.05 138.979 217.856 139.913 218.46 141.163C219.064 142.406 219.366 143.964 219.366 145.839C219.366 147.665 219.071 149.206 218.481 150.463C217.899 151.713 217.104 152.661 216.095 153.308C215.094 153.947 213.971 154.266 212.729 154.266C211.848 154.266 211.099 154.121 210.481 153.83C209.87 153.538 209.369 153.173 208.979 152.732C208.588 152.285 208.29 151.834 208.084 151.379H207.945V160.136H203.407ZM207.849 145.818C207.849 146.791 207.984 147.64 208.254 148.364C208.524 149.089 208.915 149.653 209.426 150.058C209.937 150.456 210.559 150.655 211.29 150.655C212.029 150.655 212.654 150.452 213.165 150.048C213.677 149.636 214.064 149.067 214.327 148.343C214.596 147.612 214.731 146.77 214.731 145.818C214.731 144.874 214.6 144.043 214.337 143.325C214.074 142.608 213.687 142.047 213.176 141.642C212.665 141.237 212.036 141.035 211.29 141.035C210.552 141.035 209.927 141.23 209.415 141.621C208.911 142.011 208.524 142.565 208.254 143.283C207.984 144 207.849 144.845 207.849 145.818ZM229.849 154.32C228.165 154.32 226.716 153.979 225.502 153.297C224.295 152.608 223.364 151.635 222.711 150.378C222.057 149.114 221.731 147.619 221.731 145.893C221.731 144.21 222.057 142.732 222.711 141.461C223.364 140.19 224.284 139.199 225.47 138.489C226.663 137.778 228.062 137.423 229.667 137.423C230.747 137.423 231.752 137.597 232.682 137.945C233.62 138.286 234.437 138.801 235.133 139.49C235.836 140.179 236.383 141.045 236.773 142.089C237.164 143.126 237.359 144.341 237.359 145.733V146.979H223.542V144.167H233.087C233.087 143.513 232.945 142.935 232.661 142.43C232.377 141.926 231.983 141.532 231.479 141.248C230.981 140.957 230.403 140.811 229.742 140.811C229.053 140.811 228.442 140.971 227.91 141.29C227.384 141.603 226.972 142.026 226.674 142.558C226.376 143.084 226.223 143.67 226.216 144.316V146.99C226.216 147.8 226.365 148.499 226.663 149.089C226.969 149.678 227.398 150.133 227.952 150.452C228.506 150.772 229.163 150.932 229.923 150.932C230.427 150.932 230.889 150.861 231.308 150.719C231.727 150.577 232.086 150.364 232.384 150.08C232.682 149.795 232.91 149.447 233.066 149.036L237.263 149.312C237.05 150.321 236.613 151.202 235.953 151.955C235.3 152.7 234.454 153.283 233.417 153.702C232.388 154.114 231.198 154.32 229.849 154.32ZM240.321 154V137.636H244.721V140.491H244.891C245.189 139.476 245.69 138.709 246.393 138.19C247.096 137.665 247.906 137.402 248.822 137.402C249.05 137.402 249.295 137.416 249.557 137.445C249.82 137.473 250.051 137.512 250.25 137.562V141.589C250.037 141.525 249.742 141.468 249.366 141.418C248.989 141.369 248.645 141.344 248.332 141.344C247.665 141.344 247.068 141.489 246.542 141.781C246.024 142.065 245.612 142.462 245.307 142.974C245.008 143.485 244.859 144.075 244.859 144.742V154H240.321ZM252.596 154V137.636H257.135V154H252.596ZM254.876 135.527C254.201 135.527 253.623 135.303 253.14 134.856C252.664 134.401 252.426 133.858 252.426 133.226C252.426 132.601 252.664 132.065 253.14 131.617C253.623 131.163 254.201 130.935 254.876 130.935C255.551 130.935 256.126 131.163 256.602 131.617C257.085 132.065 257.326 132.601 257.326 133.226C257.326 133.858 257.085 134.401 256.602 134.856C256.126 135.303 255.551 135.527 254.876 135.527ZM268.227 154.32C266.544 154.32 265.095 153.979 263.881 153.297C262.673 152.608 261.743 151.635 261.09 150.378C260.436 149.114 260.11 147.619 260.11 145.893C260.11 144.21 260.436 142.732 261.09 141.461C261.743 140.19 262.663 139.199 263.849 138.489C265.042 137.778 266.441 137.423 268.046 137.423C269.126 137.423 270.131 137.597 271.061 137.945C271.999 138.286 272.816 138.801 273.512 139.49C274.215 140.179 274.762 141.045 275.152 142.089C275.543 143.126 275.738 144.341 275.738 145.733V146.979H261.921V144.167H271.466C271.466 143.513 271.324 142.935 271.04 142.43C270.756 141.926 270.362 141.532 269.857 141.248C269.36 140.957 268.781 140.811 268.121 140.811C267.432 140.811 266.821 140.971 266.289 141.29C265.763 141.603 265.351 142.026 265.053 142.558C264.754 143.084 264.602 143.67 264.595 144.316V146.99C264.595 147.8 264.744 148.499 265.042 149.089C265.347 149.678 265.777 150.133 266.331 150.452C266.885 150.772 267.542 150.932 268.302 150.932C268.806 150.932 269.268 150.861 269.687 150.719C270.106 150.577 270.465 150.364 270.763 150.08C271.061 149.795 271.289 149.447 271.445 149.036L275.642 149.312C275.429 150.321 274.992 151.202 274.332 151.955C273.678 152.7 272.833 153.283 271.796 153.702C270.767 154.114 269.577 154.32 268.227 154.32ZM283.238 144.54V154H278.7V137.636H283.025V140.523H283.217C283.579 139.572 284.186 138.819 285.039 138.265C285.891 137.704 286.924 137.423 288.139 137.423C289.275 137.423 290.266 137.672 291.111 138.169C291.956 138.666 292.613 139.376 293.082 140.3C293.551 141.216 293.785 142.31 293.785 143.581V154H289.247V144.391C289.254 143.389 288.998 142.608 288.48 142.047C287.961 141.479 287.247 141.195 286.338 141.195C285.727 141.195 285.188 141.326 284.719 141.589C284.257 141.852 283.895 142.235 283.632 142.739C283.377 143.237 283.245 143.837 283.238 144.54ZM304.755 154.32C303.079 154.32 301.637 153.964 300.43 153.254C299.23 152.537 298.306 151.543 297.66 150.271C297.021 149 296.701 147.537 296.701 145.882C296.701 144.206 297.025 142.736 297.671 141.472C298.324 140.2 299.251 139.21 300.451 138.499C301.652 137.782 303.079 137.423 304.734 137.423C306.162 137.423 307.412 137.683 308.484 138.201C309.556 138.719 310.405 139.447 311.03 140.385C311.655 141.322 312 142.423 312.064 143.688H307.781C307.66 142.871 307.341 142.214 306.822 141.717C306.311 141.212 305.64 140.96 304.809 140.96C304.105 140.96 303.491 141.152 302.966 141.536C302.447 141.912 302.042 142.462 301.751 143.187C301.46 143.911 301.314 144.788 301.314 145.818C301.314 146.862 301.456 147.75 301.74 148.482C302.032 149.213 302.44 149.771 302.966 150.154C303.491 150.538 304.105 150.729 304.809 150.729C305.327 150.729 305.792 150.623 306.204 150.41C306.623 150.197 306.968 149.888 307.238 149.483C307.515 149.071 307.696 148.577 307.781 148.002H312.064C311.993 149.252 311.652 150.353 311.041 151.305C310.437 152.249 309.603 152.988 308.537 153.521C307.472 154.053 306.211 154.32 304.755 154.32ZM322.427 154.32C320.743 154.32 319.295 153.979 318.08 153.297C316.873 152.608 315.942 151.635 315.289 150.378C314.635 149.114 314.309 147.619 314.309 145.893C314.309 144.21 314.635 142.732 315.289 141.461C315.942 140.19 316.862 139.199 318.048 138.489C319.241 137.778 320.64 137.423 322.246 137.423C323.325 137.423 324.33 137.597 325.26 137.945C326.198 138.286 327.015 138.801 327.711 139.49C328.414 140.179 328.961 141.045 329.351 142.089C329.742 143.126 329.937 144.341 329.937 145.733V146.979H316.12V144.167H325.665C325.665 143.513 325.523 142.935 325.239 142.43C324.955 141.926 324.561 141.532 324.057 141.248C323.559 140.957 322.981 140.811 322.32 140.811C321.631 140.811 321.02 140.971 320.488 141.29C319.962 141.603 319.55 142.026 319.252 142.558C318.954 143.084 318.801 143.67 318.794 144.316V146.99C318.794 147.8 318.943 148.499 319.241 149.089C319.547 149.678 319.976 150.133 320.53 150.452C321.084 150.772 321.741 150.932 322.501 150.932C323.006 150.932 323.467 150.861 323.886 150.719C324.305 150.577 324.664 150.364 324.962 150.08C325.26 149.795 325.488 149.447 325.644 149.036L329.841 149.312C329.628 150.321 329.192 151.202 328.531 151.955C327.878 152.7 327.032 153.283 325.996 153.702C324.966 154.114 323.776 154.32 322.427 154.32Z" fill="#B31A16"/>
<path d="M167.896 228V206.182H176.504C178.159 206.182 179.569 206.498 180.734 207.13C181.898 207.755 182.786 208.625 183.397 209.74C184.015 210.848 184.324 212.126 184.324 213.575C184.324 215.024 184.011 216.303 183.386 217.411C182.761 218.518 181.856 219.381 180.67 219.999C179.491 220.617 178.063 220.926 176.387 220.926H170.901V217.229H175.641C176.529 217.229 177.261 217.077 177.836 216.771C178.418 216.459 178.852 216.029 179.136 215.482C179.427 214.928 179.572 214.293 179.572 213.575C179.572 212.851 179.427 212.219 179.136 211.679C178.852 211.132 178.418 210.71 177.836 210.411C177.254 210.106 176.515 209.953 175.62 209.953H172.509V228H167.896ZM187.235 228V211.636H191.635V214.491H191.805C192.104 213.476 192.604 212.709 193.307 212.19C194.01 211.665 194.82 211.402 195.736 211.402C195.964 211.402 196.209 211.416 196.471 211.445C196.734 211.473 196.965 211.512 197.164 211.562V215.589C196.951 215.525 196.656 215.468 196.28 215.418C195.903 215.369 195.559 215.344 195.246 215.344C194.579 215.344 193.982 215.489 193.456 215.781C192.938 216.065 192.526 216.462 192.221 216.974C191.922 217.485 191.773 218.075 191.773 218.742V228H187.235ZM206.142 228.32C204.487 228.32 203.056 227.968 201.849 227.265C200.648 226.555 199.722 225.567 199.068 224.303C198.415 223.032 198.088 221.558 198.088 219.882C198.088 218.192 198.415 216.714 199.068 215.45C199.722 214.179 200.648 213.192 201.849 212.489C203.056 211.778 204.487 211.423 206.142 211.423C207.797 211.423 209.224 211.778 210.425 212.489C211.632 213.192 212.562 214.179 213.216 215.45C213.869 216.714 214.196 218.192 214.196 219.882C214.196 221.558 213.869 223.032 213.216 224.303C212.562 225.567 211.632 226.555 210.425 227.265C209.224 227.968 207.797 228.32 206.142 228.32ZM206.163 224.804C206.916 224.804 207.545 224.591 208.049 224.165C208.553 223.732 208.933 223.142 209.189 222.396C209.452 221.651 209.583 220.802 209.583 219.85C209.583 218.898 209.452 218.05 209.189 217.304C208.933 216.558 208.553 215.969 208.049 215.536C207.545 215.102 206.916 214.886 206.163 214.886C205.403 214.886 204.764 215.102 204.246 215.536C203.734 215.969 203.347 216.558 203.085 217.304C202.829 218.05 202.701 218.898 202.701 219.85C202.701 220.802 202.829 221.651 203.085 222.396C203.347 223.142 203.734 223.732 204.246 224.165C204.764 224.591 205.403 224.804 206.163 224.804ZM217.147 211.636H221.685V228.81C221.685 230.074 221.437 231.097 220.94 231.878C220.442 232.659 219.729 233.231 218.798 233.593C217.875 233.955 216.771 234.136 215.485 234.136C215.329 234.136 215.18 234.133 215.038 234.126C214.888 234.126 214.732 234.122 214.569 234.115V230.567C214.69 230.575 214.796 230.578 214.888 230.578C214.974 230.585 215.066 230.589 215.165 230.589C215.897 230.589 216.408 230.433 216.7 230.12C216.998 229.815 217.147 229.353 217.147 228.735V211.636ZM219.406 209.527C218.738 209.527 218.163 209.303 217.68 208.856C217.197 208.401 216.955 207.858 216.955 207.226C216.955 206.601 217.197 206.065 217.68 205.617C218.163 205.163 218.738 204.935 219.406 204.935C220.087 204.935 220.666 205.163 221.142 205.617C221.625 206.065 221.866 206.601 221.866 207.226C221.866 207.858 221.625 208.401 221.142 208.856C220.666 209.303 220.087 209.527 219.406 209.527ZM232.778 228.32C231.095 228.32 229.646 227.979 228.432 227.297C227.224 226.608 226.294 225.635 225.64 224.378C224.987 223.114 224.66 221.619 224.66 219.893C224.66 218.21 224.987 216.732 225.64 215.461C226.294 214.19 227.214 213.199 228.4 212.489C229.593 211.778 230.992 211.423 232.597 211.423C233.677 211.423 234.682 211.597 235.612 211.945C236.55 212.286 237.366 212.801 238.062 213.49C238.765 214.179 239.312 215.045 239.703 216.089C240.094 217.126 240.289 218.341 240.289 219.733V220.979H226.471V218.167H236.017C236.017 217.513 235.875 216.935 235.591 216.43C235.307 215.926 234.912 215.532 234.408 215.248C233.911 214.957 233.332 214.811 232.672 214.811C231.983 214.811 231.372 214.971 230.839 215.29C230.314 215.603 229.902 216.026 229.604 216.558C229.305 217.084 229.153 217.67 229.145 218.316V220.99C229.145 221.8 229.295 222.499 229.593 223.089C229.898 223.678 230.328 224.133 230.882 224.452C231.436 224.772 232.093 224.932 232.853 224.932C233.357 224.932 233.819 224.861 234.238 224.719C234.657 224.577 235.015 224.364 235.314 224.08C235.612 223.795 235.839 223.447 235.996 223.036L240.193 223.312C239.98 224.321 239.543 225.202 238.883 225.955C238.229 226.7 237.384 227.283 236.347 227.702C235.317 228.114 234.128 228.32 232.778 228.32ZM250.644 228.32C248.968 228.32 247.526 227.964 246.319 227.254C245.118 226.537 244.195 225.543 243.549 224.271C242.91 223 242.59 221.537 242.59 219.882C242.59 218.206 242.913 216.736 243.559 215.472C244.213 214.2 245.14 213.21 246.34 212.499C247.54 211.782 248.968 211.423 250.623 211.423C252.05 211.423 253.3 211.683 254.373 212.201C255.445 212.719 256.294 213.447 256.919 214.385C257.544 215.322 257.888 216.423 257.952 217.688H253.67C253.549 216.871 253.229 216.214 252.711 215.717C252.199 215.212 251.528 214.96 250.697 214.96C249.994 214.96 249.38 215.152 248.854 215.536C248.336 215.912 247.931 216.462 247.64 217.187C247.349 217.911 247.203 218.788 247.203 219.818C247.203 220.862 247.345 221.75 247.629 222.482C247.92 223.213 248.329 223.771 248.854 224.154C249.38 224.538 249.994 224.729 250.697 224.729C251.216 224.729 251.681 224.623 252.093 224.41C252.512 224.197 252.856 223.888 253.126 223.483C253.403 223.071 253.584 222.577 253.67 222.002H257.952C257.881 223.252 257.54 224.353 256.93 225.305C256.326 226.249 255.491 226.988 254.426 227.521C253.361 228.053 252.1 228.32 250.644 228.32ZM269.562 211.636V215.045H259.707V211.636H269.562ZM261.945 207.716H266.483V222.972C266.483 223.391 266.547 223.717 266.675 223.952C266.803 224.179 266.98 224.339 267.207 224.431C267.442 224.523 267.712 224.57 268.017 224.57C268.23 224.57 268.443 224.552 268.656 224.516C268.869 224.474 269.033 224.442 269.146 224.42L269.86 227.798C269.633 227.869 269.313 227.95 268.901 228.043C268.489 228.142 267.989 228.202 267.399 228.224C266.305 228.266 265.347 228.121 264.523 227.787C263.706 227.453 263.07 226.935 262.616 226.232C262.161 225.528 261.938 224.641 261.945 223.568V207.716ZM285.928 216.303L281.773 216.558C281.702 216.203 281.55 215.884 281.315 215.599C281.081 215.308 280.772 215.077 280.388 214.907C280.012 214.729 279.561 214.641 279.035 214.641C278.332 214.641 277.739 214.79 277.256 215.088C276.773 215.379 276.532 215.77 276.532 216.26C276.532 216.651 276.688 216.981 277.001 217.251C277.313 217.521 277.849 217.737 278.609 217.901L281.571 218.497C283.162 218.824 284.348 219.349 285.129 220.074C285.91 220.798 286.301 221.75 286.301 222.929C286.301 224.001 285.985 224.942 285.353 225.752C284.728 226.562 283.868 227.194 282.775 227.648C281.688 228.096 280.434 228.32 279.014 228.32C276.848 228.32 275.122 227.869 273.836 226.967C272.558 226.058 271.809 224.822 271.589 223.259L276.052 223.025C276.187 223.685 276.514 224.19 277.032 224.538C277.551 224.879 278.215 225.049 279.025 225.049C279.82 225.049 280.459 224.896 280.942 224.591C281.432 224.278 281.681 223.877 281.688 223.387C281.681 222.975 281.507 222.638 281.166 222.375C280.825 222.105 280.3 221.899 279.589 221.757L276.756 221.192C275.157 220.873 273.968 220.319 273.187 219.531C272.412 218.742 272.025 217.737 272.025 216.516C272.025 215.464 272.309 214.559 272.878 213.799C273.453 213.039 274.259 212.453 275.296 212.041C276.34 211.629 277.562 211.423 278.961 211.423C281.028 211.423 282.654 211.86 283.84 212.734C285.033 213.607 285.729 214.797 285.928 216.303Z" fill="#B31A16"/>
<path d="M171.838 283.182L177.112 299.759H177.314L182.598 283.182H187.712L180.19 305H174.246L166.714 283.182H171.838ZM195.8 305.32C194.145 305.32 192.714 304.968 191.507 304.265C190.307 303.555 189.38 302.567 188.726 301.303C188.073 300.032 187.746 298.558 187.746 296.882C187.746 295.192 188.073 293.714 188.726 292.45C189.38 291.179 190.307 290.192 191.507 289.489C192.714 288.778 194.145 288.423 195.8 288.423C197.455 288.423 198.883 288.778 200.083 289.489C201.29 290.192 202.221 291.179 202.874 292.45C203.528 293.714 203.854 295.192 203.854 296.882C203.854 298.558 203.528 300.032 202.874 301.303C202.221 302.567 201.29 303.555 200.083 304.265C198.883 304.968 197.455 305.32 195.8 305.32ZM195.822 301.804C196.574 301.804 197.203 301.591 197.707 301.165C198.211 300.732 198.591 300.142 198.847 299.396C199.11 298.651 199.241 297.802 199.241 296.85C199.241 295.898 199.11 295.05 198.847 294.304C198.591 293.558 198.211 292.969 197.707 292.536C197.203 292.102 196.574 291.886 195.822 291.886C195.062 291.886 194.422 292.102 193.904 292.536C193.393 292.969 193.006 293.558 192.743 294.304C192.487 295.05 192.359 295.898 192.359 296.85C192.359 297.802 192.487 298.651 192.743 299.396C193.006 300.142 193.393 300.732 193.904 301.165C194.422 301.591 195.062 301.804 195.822 301.804ZM211.344 283.182V305H206.805V283.182H211.344ZM225.473 298.033V288.636H230.011V305H225.654V302.028H225.483C225.114 302.987 224.5 303.757 223.64 304.339C222.788 304.922 221.748 305.213 220.519 305.213C219.425 305.213 218.463 304.964 217.632 304.467C216.801 303.97 216.151 303.263 215.682 302.347C215.221 301.431 214.986 300.334 214.979 299.055V288.636H219.517V298.246C219.525 299.212 219.784 299.975 220.295 300.536C220.806 301.097 221.492 301.378 222.351 301.378C222.898 301.378 223.409 301.254 223.885 301.005C224.361 300.749 224.745 300.373 225.036 299.876C225.334 299.379 225.48 298.764 225.473 298.033ZM238.18 295.54V305H233.641V288.636H237.966V291.523H238.158C238.52 290.572 239.128 289.819 239.98 289.265C240.832 288.704 241.866 288.423 243.08 288.423C244.216 288.423 245.207 288.672 246.052 289.169C246.898 289.666 247.555 290.376 248.023 291.3C248.492 292.216 248.726 293.31 248.726 294.581V305H244.188V295.391C244.195 294.389 243.939 293.608 243.421 293.047C242.903 292.479 242.189 292.195 241.28 292.195C240.669 292.195 240.129 292.326 239.66 292.589C239.199 292.852 238.836 293.235 238.574 293.739C238.318 294.237 238.187 294.837 238.18 295.54ZM261.007 288.636V292.045H251.153V288.636H261.007ZM253.39 284.716H257.928V299.972C257.928 300.391 257.992 300.717 258.12 300.952C258.248 301.179 258.425 301.339 258.653 301.431C258.887 301.523 259.157 301.57 259.462 301.57C259.675 301.57 259.888 301.552 260.102 301.516C260.315 301.474 260.478 301.442 260.592 301.42L261.305 304.798C261.078 304.869 260.759 304.95 260.347 305.043C259.935 305.142 259.434 305.202 258.844 305.224C257.751 305.266 256.792 305.121 255.968 304.787C255.151 304.453 254.516 303.935 254.061 303.232C253.607 302.528 253.383 301.641 253.39 300.568V284.716ZM271.245 305.32C269.562 305.32 268.113 304.979 266.898 304.297C265.691 303.608 264.761 302.635 264.107 301.378C263.454 300.114 263.127 298.619 263.127 296.893C263.127 295.21 263.454 293.732 264.107 292.461C264.761 291.19 265.68 290.199 266.866 289.489C268.06 288.778 269.459 288.423 271.064 288.423C272.143 288.423 273.148 288.597 274.079 288.945C275.016 289.286 275.833 289.801 276.529 290.49C277.232 291.179 277.779 292.045 278.17 293.089C278.56 294.126 278.756 295.341 278.756 296.733V297.979H264.938V295.167H274.484C274.484 294.513 274.342 293.935 274.058 293.43C273.773 292.926 273.379 292.532 272.875 292.248C272.378 291.957 271.799 291.811 271.138 291.811C270.45 291.811 269.839 291.971 269.306 292.29C268.781 292.603 268.369 293.026 268.07 293.558C267.772 294.084 267.619 294.67 267.612 295.316V297.99C267.612 298.8 267.761 299.499 268.06 300.089C268.365 300.678 268.795 301.133 269.349 301.452C269.903 301.772 270.56 301.932 271.32 301.932C271.824 301.932 272.286 301.861 272.705 301.719C273.124 301.577 273.482 301.364 273.781 301.08C274.079 300.795 274.306 300.447 274.462 300.036L278.66 300.312C278.447 301.321 278.01 302.202 277.349 302.955C276.696 303.7 275.851 304.283 274.814 304.702C273.784 305.114 272.594 305.32 271.245 305.32ZM289.175 305.32C287.491 305.32 286.043 304.979 284.828 304.297C283.621 303.608 282.69 302.635 282.037 301.378C281.384 300.114 281.057 298.619 281.057 296.893C281.057 295.21 281.384 293.732 282.037 292.461C282.69 291.19 283.61 290.199 284.796 289.489C285.989 288.778 287.388 288.423 288.994 288.423C290.073 288.423 291.078 288.597 292.009 288.945C292.946 289.286 293.763 289.801 294.459 290.49C295.162 291.179 295.709 292.045 296.099 293.089C296.49 294.126 296.685 295.341 296.685 296.733V297.979H282.868V295.167H292.413C292.413 294.513 292.271 293.935 291.987 293.43C291.703 292.926 291.309 292.532 290.805 292.248C290.308 291.957 289.729 291.811 289.068 291.811C288.379 291.811 287.768 291.971 287.236 292.29C286.71 292.603 286.298 293.026 286 293.558C285.702 294.084 285.549 294.67 285.542 295.316V297.99C285.542 298.8 285.691 299.499 285.989 300.089C286.295 300.678 286.724 301.133 287.278 301.452C287.832 301.772 288.489 301.932 289.249 301.932C289.754 301.932 290.215 301.861 290.634 301.719C291.053 301.577 291.412 301.364 291.71 301.08C292.009 300.795 292.236 300.447 292.392 300.036L296.589 300.312C296.376 301.321 295.94 302.202 295.279 302.955C294.626 303.7 293.781 304.283 292.744 304.702C291.714 305.114 290.524 305.32 289.175 305.32ZM299.647 305V288.636H304.047V291.491H304.217C304.516 290.476 305.016 289.709 305.719 289.19C306.423 288.665 307.232 288.402 308.148 288.402C308.376 288.402 308.621 288.416 308.884 288.445C309.146 288.473 309.377 288.512 309.576 288.562V292.589C309.363 292.525 309.068 292.468 308.692 292.418C308.315 292.369 307.971 292.344 307.658 292.344C306.991 292.344 306.394 292.489 305.869 292.781C305.35 293.065 304.938 293.462 304.633 293.974C304.335 294.485 304.185 295.075 304.185 295.742V305H299.647ZM322.094 305L317.641 288.636H322.232L324.768 299.631H324.917L327.559 288.636H332.065L334.75 299.567H334.888L337.381 288.636H341.962L337.52 305H332.715L329.903 294.709H329.7L326.888 305H322.094ZM351.367 305.32C349.712 305.32 348.281 304.968 347.073 304.265C345.873 303.555 344.946 302.567 344.293 301.303C343.639 300.032 343.313 298.558 343.313 296.882C343.313 295.192 343.639 293.714 344.293 292.45C344.946 291.179 345.873 290.192 347.073 289.489C348.281 288.778 349.712 288.423 351.367 288.423C353.021 288.423 354.449 288.778 355.649 289.489C356.857 290.192 357.787 291.179 358.441 292.45C359.094 293.714 359.421 295.192 359.421 296.882C359.421 298.558 359.094 300.032 358.441 301.303C357.787 302.567 356.857 303.555 355.649 304.265C354.449 304.968 353.021 305.32 351.367 305.32ZM351.388 301.804C352.141 301.804 352.769 301.591 353.274 301.165C353.778 300.732 354.158 300.142 354.414 299.396C354.676 298.651 354.808 297.802 354.808 296.85C354.808 295.898 354.676 295.05 354.414 294.304C354.158 293.558 353.778 292.969 353.274 292.536C352.769 292.102 352.141 291.886 351.388 291.886C350.628 291.886 349.989 292.102 349.47 292.536C348.959 292.969 348.572 293.558 348.309 294.304C348.053 295.05 347.926 295.898 347.926 296.85C347.926 297.802 348.053 298.651 348.309 299.396C348.572 300.142 348.959 300.732 349.47 301.165C349.989 301.591 350.628 301.804 351.388 301.804ZM362.372 305V288.636H366.771V291.491H366.942C367.24 290.476 367.741 289.709 368.444 289.19C369.147 288.665 369.957 288.402 370.873 288.402C371.1 288.402 371.345 288.416 371.608 288.445C371.871 288.473 372.102 288.512 372.301 288.562V292.589C372.088 292.525 371.793 292.468 371.416 292.418C371.04 292.369 370.695 292.344 370.383 292.344C369.715 292.344 369.119 292.489 368.593 292.781C368.075 293.065 367.663 293.462 367.357 293.974C367.059 294.485 366.91 295.075 366.91 295.742V305H362.372ZM378.759 300.291L378.77 294.847H379.43L384.672 288.636H389.881L382.839 296.861H381.763L378.759 300.291ZM374.647 305V283.182H379.185V305H374.647ZM384.874 305L380.059 297.873L383.085 294.666L390.19 305H384.874ZM405.723 293.303L401.568 293.558C401.497 293.203 401.344 292.884 401.11 292.599C400.876 292.308 400.567 292.077 400.183 291.907C399.807 291.729 399.356 291.641 398.83 291.641C398.127 291.641 397.534 291.79 397.051 292.088C396.568 292.379 396.327 292.77 396.327 293.26C396.327 293.651 396.483 293.981 396.795 294.251C397.108 294.521 397.644 294.737 398.404 294.901L401.366 295.497C402.957 295.824 404.143 296.349 404.924 297.074C405.705 297.798 406.096 298.75 406.096 299.929C406.096 301.001 405.78 301.942 405.148 302.752C404.523 303.562 403.663 304.194 402.57 304.648C401.483 305.096 400.229 305.32 398.809 305.32C396.643 305.32 394.917 304.869 393.631 303.967C392.353 303.058 391.604 301.822 391.384 300.259L395.847 300.025C395.982 300.685 396.309 301.19 396.827 301.538C397.346 301.879 398.01 302.049 398.82 302.049C399.615 302.049 400.254 301.896 400.737 301.591C401.227 301.278 401.476 300.877 401.483 300.387C401.476 299.975 401.302 299.638 400.961 299.375C400.62 299.105 400.094 298.899 399.384 298.757L396.55 298.192C394.952 297.873 393.763 297.319 392.982 296.531C392.207 295.742 391.82 294.737 391.82 293.516C391.82 292.464 392.104 291.559 392.673 290.799C393.248 290.039 394.054 289.453 395.091 289.041C396.135 288.629 397.357 288.423 398.756 288.423C400.822 288.423 402.449 288.86 403.635 289.734C404.828 290.607 405.524 291.797 405.723 293.303Z" fill="#B31A16"/>
<path d="M167.896 383V361.182H172.509V370.184H181.874V361.182H186.476V383H181.874V373.987H172.509V383H167.896ZM197.587 383.32C195.933 383.32 194.501 382.968 193.294 382.265C192.094 381.555 191.167 380.567 190.513 379.303C189.86 378.032 189.533 376.558 189.533 374.882C189.533 373.192 189.86 371.714 190.513 370.45C191.167 369.179 192.094 368.192 193.294 367.489C194.501 366.778 195.933 366.423 197.587 366.423C199.242 366.423 200.67 366.778 201.87 367.489C203.077 368.192 204.008 369.179 204.661 370.45C205.315 371.714 205.641 373.192 205.641 374.882C205.641 376.558 205.315 378.032 204.661 379.303C204.008 380.567 203.077 381.555 201.87 382.265C200.67 382.968 199.242 383.32 197.587 383.32ZM197.609 379.804C198.362 379.804 198.99 379.591 199.494 379.165C199.999 378.732 200.379 378.142 200.634 377.396C200.897 376.651 201.028 375.802 201.028 374.85C201.028 373.898 200.897 373.05 200.634 372.304C200.379 371.558 199.999 370.969 199.494 370.536C198.99 370.102 198.362 369.886 197.609 369.886C196.849 369.886 196.21 370.102 195.691 370.536C195.18 370.969 194.793 371.558 194.53 372.304C194.274 373.05 194.146 373.898 194.146 374.85C194.146 375.802 194.274 376.651 194.53 377.396C194.793 378.142 195.18 378.732 195.691 379.165C196.21 379.591 196.849 379.804 197.609 379.804ZM213.131 373.54V383H208.592V366.636H212.918V369.523H213.109C213.472 368.572 214.079 367.819 214.931 367.265C215.783 366.704 216.817 366.423 218.031 366.423C219.168 366.423 220.158 366.672 221.004 367.169C221.849 367.666 222.506 368.376 222.974 369.3C223.443 370.216 223.678 371.31 223.678 372.581V383H219.139V373.391C219.146 372.389 218.891 371.608 218.372 371.047C217.854 370.479 217.14 370.195 216.231 370.195C215.62 370.195 215.08 370.326 214.612 370.589C214.15 370.852 213.788 371.235 213.525 371.739C213.269 372.237 213.138 372.837 213.131 373.54ZM234.648 383.32C232.993 383.32 231.562 382.968 230.355 382.265C229.154 381.555 228.227 380.567 227.574 379.303C226.921 378.032 226.594 376.558 226.594 374.882C226.594 373.192 226.921 371.714 227.574 370.45C228.227 369.179 229.154 368.192 230.355 367.489C231.562 366.778 232.993 366.423 234.648 366.423C236.303 366.423 237.73 366.778 238.931 367.489C240.138 368.192 241.068 369.179 241.722 370.45C242.375 371.714 242.702 373.192 242.702 374.882C242.702 376.558 242.375 378.032 241.722 379.303C241.068 380.567 240.138 381.555 238.931 382.265C237.73 382.968 236.303 383.32 234.648 383.32ZM234.669 379.804C235.422 379.804 236.051 379.591 236.555 379.165C237.059 378.732 237.439 378.142 237.695 377.396C237.958 376.651 238.089 375.802 238.089 374.85C238.089 373.898 237.958 373.05 237.695 372.304C237.439 371.558 237.059 370.969 236.555 370.536C236.051 370.102 235.422 369.886 234.669 369.886C233.909 369.886 233.27 370.102 232.752 370.536C232.24 370.969 231.853 371.558 231.59 372.304C231.335 373.05 231.207 373.898 231.207 374.85C231.207 375.802 231.335 376.651 231.59 377.396C231.853 378.142 232.24 378.732 232.752 379.165C233.27 379.591 233.909 379.804 234.669 379.804ZM245.653 383V366.636H250.053V369.491H250.223C250.521 368.476 251.022 367.709 251.725 367.19C252.428 366.665 253.238 366.402 254.154 366.402C254.382 366.402 254.627 366.416 254.889 366.445C255.152 366.473 255.383 366.512 255.582 366.562V370.589C255.369 370.525 255.074 370.468 254.698 370.418C254.321 370.369 253.977 370.344 253.664 370.344C252.997 370.344 252.4 370.489 251.874 370.781C251.356 371.065 250.944 371.462 250.639 371.974C250.34 372.485 250.191 373.075 250.191 373.742V383H245.653ZM271.543 371.303L267.388 371.558C267.317 371.203 267.165 370.884 266.93 370.599C266.696 370.308 266.387 370.077 266.004 369.907C265.627 369.729 265.176 369.641 264.651 369.641C263.947 369.641 263.354 369.79 262.871 370.088C262.388 370.379 262.147 370.77 262.147 371.26C262.147 371.651 262.303 371.981 262.616 372.251C262.928 372.521 263.464 372.737 264.224 372.901L267.186 373.497C268.777 373.824 269.963 374.349 270.744 375.074C271.526 375.798 271.916 376.75 271.916 377.929C271.916 379.001 271.6 379.942 270.968 380.752C270.343 381.562 269.484 382.194 268.39 382.648C267.303 383.096 266.05 383.32 264.629 383.32C262.463 383.32 260.737 382.869 259.452 381.967C258.173 381.058 257.424 379.822 257.204 378.259L261.668 378.025C261.803 378.685 262.129 379.19 262.648 379.538C263.166 379.879 263.83 380.049 264.64 380.049C265.435 380.049 266.075 379.896 266.558 379.591C267.048 379.278 267.296 378.877 267.303 378.387C267.296 377.975 267.122 377.638 266.781 377.375C266.44 377.105 265.915 376.899 265.205 376.757L262.371 376.192C260.773 375.873 259.583 375.319 258.802 374.531C258.028 373.742 257.641 372.737 257.641 371.516C257.641 370.464 257.925 369.559 258.493 368.799C259.068 368.039 259.874 367.453 260.911 367.041C261.955 366.629 263.177 366.423 264.576 366.423C266.643 366.423 268.269 366.86 269.455 367.734C270.648 368.607 271.344 369.797 271.543 371.303ZM288.408 383.32C286.902 383.32 285.602 383.05 284.509 382.51C283.415 381.97 282.573 381.239 281.984 380.315C281.401 379.385 281.11 378.348 281.11 377.205C281.11 376.352 281.281 375.596 281.621 374.935C281.962 374.275 282.438 373.668 283.049 373.114C283.66 372.553 284.37 371.995 285.18 371.441L289.409 368.661C289.956 368.312 290.357 367.947 290.613 367.563C290.869 367.173 290.996 366.75 290.996 366.295C290.996 365.862 290.822 365.461 290.474 365.092C290.126 364.722 289.633 364.541 288.994 364.548C288.567 364.548 288.198 364.644 287.886 364.836C287.573 365.021 287.328 365.266 287.151 365.571C286.98 365.869 286.895 366.203 286.895 366.572C286.895 367.027 287.023 367.489 287.278 367.957C287.534 368.426 287.875 368.923 288.301 369.449C288.727 369.967 289.192 370.528 289.697 371.132L300.041 383H295.311L286.682 373.391C286.114 372.744 285.545 372.07 284.977 371.366C284.416 370.656 283.947 369.903 283.571 369.108C283.195 368.305 283.006 367.435 283.006 366.498C283.006 365.44 283.251 364.488 283.741 363.643C284.239 362.798 284.935 362.13 285.83 361.64C286.724 361.143 287.768 360.894 288.962 360.894C290.126 360.894 291.131 361.132 291.977 361.608C292.829 362.077 293.482 362.702 293.937 363.483C294.398 364.257 294.629 365.109 294.629 366.04C294.629 367.07 294.374 368.004 293.862 368.842C293.358 369.673 292.648 370.418 291.732 371.079L287.278 374.286C286.675 374.726 286.227 375.177 285.936 375.638C285.652 376.093 285.51 376.53 285.51 376.949C285.51 377.467 285.638 377.933 285.893 378.344C286.149 378.756 286.511 379.083 286.98 379.325C287.449 379.559 287.999 379.676 288.631 379.676C289.398 379.676 290.155 379.502 290.901 379.154C291.653 378.799 292.335 378.298 292.946 377.652C293.564 376.999 294.058 376.224 294.427 375.33C294.796 374.435 294.981 373.444 294.981 372.357H298.741C298.741 373.692 298.596 374.896 298.305 375.969C298.013 377.034 297.609 377.964 297.09 378.76C296.572 379.548 295.979 380.195 295.311 380.699C295.098 380.834 294.892 380.962 294.693 381.082C294.494 381.203 294.288 381.331 294.075 381.466C293.266 382.119 292.36 382.592 291.359 382.883C290.364 383.174 289.381 383.32 288.408 383.32ZM312.721 383H307.778L315.31 361.182H321.255L328.776 383H323.833L318.368 366.168H318.197L312.721 383ZM312.412 374.424H324.089V378.025H312.412V374.424ZM332.494 383L328.041 366.636H332.633L335.168 377.631H335.317L337.959 366.636H342.466L345.15 377.567H345.289L347.782 366.636H352.363L347.92 383H343.116L340.303 372.709H340.101L337.288 383H332.494ZM359.45 383.309C358.406 383.309 357.475 383.128 356.659 382.766C355.842 382.396 355.196 381.853 354.72 381.136C354.251 380.411 354.017 379.509 354.017 378.43C354.017 377.521 354.184 376.757 354.517 376.139C354.851 375.521 355.306 375.024 355.881 374.648C356.456 374.271 357.11 373.987 357.841 373.795C358.58 373.604 359.354 373.469 360.164 373.391C361.115 373.291 361.882 373.199 362.465 373.114C363.047 373.021 363.47 372.886 363.733 372.709C363.995 372.531 364.127 372.268 364.127 371.92V371.857C364.127 371.182 363.914 370.66 363.488 370.29C363.069 369.921 362.472 369.737 361.698 369.737C360.881 369.737 360.231 369.918 359.748 370.28C359.265 370.635 358.946 371.082 358.789 371.622L354.592 371.281C354.805 370.287 355.224 369.428 355.849 368.703C356.474 367.972 357.28 367.411 358.267 367.02C359.262 366.622 360.412 366.423 361.719 366.423C362.628 366.423 363.498 366.53 364.329 366.743C365.167 366.956 365.909 367.286 366.556 367.734C367.209 368.181 367.724 368.756 368.1 369.46C368.477 370.156 368.665 370.99 368.665 371.963V383H364.361V380.731H364.233C363.971 381.242 363.619 381.693 363.179 382.084C362.738 382.467 362.209 382.769 361.591 382.989C360.973 383.202 360.26 383.309 359.45 383.309ZM360.75 380.177C361.417 380.177 362.007 380.045 362.518 379.783C363.029 379.513 363.431 379.151 363.722 378.696C364.013 378.241 364.159 377.727 364.159 377.151V375.415C364.017 375.507 363.821 375.592 363.573 375.67C363.331 375.741 363.058 375.809 362.752 375.873C362.447 375.93 362.142 375.983 361.836 376.033C361.531 376.075 361.254 376.114 361.005 376.15C360.473 376.228 360.007 376.352 359.61 376.523C359.212 376.693 358.903 376.924 358.683 377.215C358.463 377.499 358.353 377.854 358.353 378.281C358.353 378.898 358.576 379.371 359.024 379.697C359.478 380.017 360.054 380.177 360.75 380.177ZM372.186 383V366.636H376.586V369.491H376.756C377.055 368.476 377.555 367.709 378.259 367.19C378.962 366.665 379.771 366.402 380.688 366.402C380.915 366.402 381.16 366.416 381.423 366.445C381.685 366.473 381.916 366.512 382.115 366.562V370.589C381.902 370.525 381.607 370.468 381.231 370.418C380.854 370.369 380.51 370.344 380.197 370.344C379.53 370.344 378.933 370.489 378.408 370.781C377.889 371.065 377.477 371.462 377.172 371.974C376.874 372.485 376.724 373.075 376.724 373.742V383H372.186ZM389.73 383.266C388.487 383.266 387.361 382.947 386.352 382.308C385.351 381.661 384.556 380.713 383.966 379.463C383.384 378.206 383.093 376.665 383.093 374.839C383.093 372.964 383.394 371.406 383.998 370.163C384.602 368.913 385.404 367.979 386.406 367.361C387.414 366.736 388.519 366.423 389.719 366.423C390.635 366.423 391.399 366.58 392.009 366.892C392.627 367.197 393.124 367.581 393.501 368.043C393.884 368.497 394.176 368.945 394.374 369.385H394.513V361.182H399.041V383H394.566V380.379H394.374C394.161 380.834 393.86 381.285 393.469 381.732C393.085 382.173 392.585 382.538 391.967 382.83C391.356 383.121 390.61 383.266 389.73 383.266ZM391.168 379.655C391.899 379.655 392.517 379.456 393.021 379.058C393.533 378.653 393.923 378.089 394.193 377.364C394.47 376.64 394.609 375.791 394.609 374.818C394.609 373.845 394.474 373 394.204 372.283C393.934 371.565 393.544 371.011 393.032 370.621C392.521 370.23 391.899 370.035 391.168 370.035C390.422 370.035 389.794 370.237 389.282 370.642C388.771 371.047 388.384 371.608 388.121 372.325C387.858 373.043 387.727 373.874 387.727 374.818C387.727 375.77 387.858 376.612 388.121 377.343C388.391 378.067 388.778 378.636 389.282 379.048C389.794 379.452 390.422 379.655 391.168 379.655ZM416.387 371.303L412.232 371.558C412.161 371.203 412.009 370.884 411.774 370.599C411.54 370.308 411.231 370.077 410.847 369.907C410.471 369.729 410.02 369.641 409.494 369.641C408.791 369.641 408.198 369.79 407.715 370.088C407.232 370.379 406.991 370.77 406.991 371.26C406.991 371.651 407.147 371.981 407.46 372.251C407.772 372.521 408.308 372.737 409.068 372.901L412.03 373.497C413.621 373.824 414.807 374.349 415.588 375.074C416.369 375.798 416.76 376.75 416.76 377.929C416.76 379.001 416.444 379.942 415.812 380.752C415.187 381.562 414.327 382.194 413.234 382.648C412.147 383.096 410.893 383.32 409.473 383.32C407.307 383.32 405.581 382.869 404.295 381.967C403.017 381.058 402.268 379.822 402.048 378.259L406.511 378.025C406.646 378.685 406.973 379.19 407.491 379.538C408.01 379.879 408.674 380.049 409.484 380.049C410.279 380.049 410.918 379.896 411.401 379.591C411.891 379.278 412.14 378.877 412.147 378.387C412.14 377.975 411.966 377.638 411.625 377.375C411.284 377.105 410.759 376.899 410.048 376.757L407.214 376.192C405.616 375.873 404.427 375.319 403.646 374.531C402.871 373.742 402.484 372.737 402.484 371.516C402.484 370.464 402.768 369.559 403.337 368.799C403.912 368.039 404.718 367.453 405.755 367.041C406.799 366.629 408.021 366.423 409.42 366.423C411.487 366.423 413.113 366.86 414.299 367.734C415.492 368.607 416.188 369.797 416.387 371.303Z" fill="#B31A16"/>
<path d="M107.013 119.011C107.289 116.654 110.711 116.654 110.987 119.011L112.836 134.846C112.989 136.158 114.349 136.964 115.573 136.468L130.587 130.389C132.821 129.485 134.452 132.573 132.446 133.908L119.782 142.335C118.593 143.126 118.593 144.874 119.782 145.665L132.446 154.092C134.452 155.427 132.821 158.515 130.587 157.611L115.573 151.532C114.349 151.036 112.989 151.842 112.836 153.154L110.987 168.989C110.711 171.346 107.289 171.346 107.013 168.989L105.164 153.154C105.011 151.842 103.651 151.036 102.427 151.532L87.4127 157.611C85.1793 158.515 83.5482 155.427 85.5542 154.092L98.2179 145.665C99.4073 144.874 99.4072 143.126 98.2179 142.335L85.5542 133.908C83.5482 132.573 85.1793 129.485 87.4127 130.389L102.427 136.468C103.651 136.964 105.011 136.158 105.164 134.846L107.013 119.011Z" fill="#B31A16"/>
<path d="M107.013 193.011C107.289 190.654 110.711 190.654 110.987 193.011L112.836 208.846C112.989 210.158 114.349 210.964 115.573 210.468L130.587 204.389C132.821 203.485 134.452 206.573 132.446 207.908L119.782 216.335C118.593 217.126 118.593 218.874 119.782 219.665L132.446 228.092C134.452 229.427 132.821 232.515 130.587 231.611L115.573 225.532C114.349 225.036 112.989 225.842 112.836 227.154L110.987 242.989C110.711 245.346 107.289 245.346 107.013 242.989L105.164 227.154C105.011 225.842 103.651 225.036 102.427 225.532L87.4127 231.611C85.1793 232.515 83.5482 229.427 85.5542 228.092L98.2179 219.665C99.4073 218.874 99.4072 217.126 98.2179 216.335L85.5542 207.908C83.5482 206.573 85.1793 203.485 87.4127 204.389L102.427 210.468C103.651 210.964 105.011 210.158 105.164 208.846L107.013 193.011Z" fill="#B31A16"/>
<path d="M107.013 270.011C107.289 267.654 110.711 267.654 110.987 270.011L112.836 285.846C112.989 287.158 114.349 287.964 115.573 287.468L130.587 281.389C132.821 280.485 134.452 283.573 132.446 284.908L119.782 293.335C118.593 294.126 118.593 295.874 119.782 296.665L132.446 305.092C134.452 306.427 132.821 309.515 130.587 308.611L115.573 302.532C114.349 302.036 112.989 302.842 112.836 304.154L110.987 319.989C110.711 322.346 107.289 322.346 107.013 319.989L105.164 304.154C105.011 302.842 103.651 302.036 102.427 302.532L87.4127 308.611C85.1793 309.515 83.5482 306.427 85.5542 305.092L98.2179 296.665C99.4073 295.874 99.4072 294.126 98.2179 293.335L85.5542 284.908C83.5482 283.573 85.1793 280.485 87.4127 281.389L102.427 287.468C103.651 287.964 105.011 287.158 105.164 285.846L107.013 270.011Z" fill="#B31A16"/>
<path d="M107.013 354.011C107.289 351.654 110.711 351.654 110.987 354.011L112.836 369.846C112.989 371.158 114.349 371.964 115.573 371.468L130.587 365.389C132.821 364.485 134.452 367.573 132.446 368.908L119.782 377.335C118.593 378.126 118.593 379.874 119.782 380.665L132.446 389.092C134.452 390.427 132.821 393.515 130.587 392.611L115.573 386.532C114.349 386.036 112.989 386.842 112.836 388.154L110.987 403.989C110.711 406.346 107.289 406.346 107.013 403.989L105.164 388.154C105.011 386.842 103.651 386.036 102.427 386.532L87.4127 392.611C85.1793 393.515 83.5482 390.427 85.5542 389.092L98.2179 380.665C99.4073 379.874 99.4072 378.126 98.2179 377.335L85.5542 368.908C83.5482 367.573 85.1793 364.485 87.4127 365.389L102.427 371.468C103.651 371.964 105.011 371.158 105.164 369.846L107.013 354.011Z" fill="#B31A16"/>
<path d="M548.442 223.6C538.207 223.571 528.356 227.464 521.062 234.462C513.764 241.463 509.624 251.003 509.596 260.99C509.568 270.977 513.654 280.54 520.912 287.583C528.166 294.621 537.995 298.57 548.23 298.599" stroke="#B61E1D" stroke-width="7"/>
<rect x="527.514" y="72.4507" width="20.0045" height="32.0281" rx="10.0022" transform="rotate(-12.8279 527.514 72.4507)" fill="#B31A16"/>
<rect x="534.625" y="103.68" width="20.32" height="33.4329" rx="10.16" transform="rotate(-102.828 534.625 103.68)" fill="#B31A16"/>
<rect x="474" y="58.1458" width="23.4474" height="40.5126" rx="11.7237" transform="rotate(-73.035 474 58.1458)" fill="#B31A16"/>
<rect x="512.75" y="69.9668" width="25.1224" height="39.8813" rx="12.5612" transform="rotate(-163.035 512.75 69.9668)" fill="#B31A16"/>
<rect y="96" width="22" height="301" rx="11" fill="#B31A16"/>
</svg>
