<svg width="879" height="484" viewBox="0 0 879 484" fill="none" xmlns="http://www.w3.org/2000/svg">
<rect x="5" y="81" width="804" height="398" rx="15" fill="#FFEBF0" stroke="#BD1F20" stroke-width="10"/>
<path d="M804.624 236.656L804.625 95.3967C804.625 89.8738 800.148 85.3967 794.625 85.3967L630.951 85.3969C630.951 85.3969 672.694 88.721 688.41 112.294C704.125 135.867 694.794 141.269 711 163.86C727.207 186.45 749.409 177.779 769.933 191.853C789.512 205.279 804.624 236.656 804.624 236.656Z" fill="#BD1F20"/>
<path d="M481.357 161.908C481.357 161.908 484.332 168.892 488.289 170.876C491.942 172.708 498.739 171.436 498.739 171.436C498.739 171.436 492.631 174.678 490.917 178.388C489.061 182.406 491.088 189.721 491.088 189.721C491.088 189.721 488.113 182.738 484.156 180.753C480.503 178.921 473.707 180.194 473.707 180.194C473.707 180.194 479.814 176.951 481.528 173.241C483.385 169.223 481.357 161.908 481.357 161.908Z" fill="#F6A400"/>
<path d="M512.909 106.489C512.909 106.489 511.9 119.356 516.417 125.483C520.587 131.141 532.101 134.627 532.101 134.627C532.101 134.627 520.071 134.652 514.449 138.869C508.359 143.437 505.621 156.049 505.621 156.049C505.621 156.049 506.63 143.183 502.113 137.055C497.943 131.398 486.429 127.911 486.429 127.911C486.429 127.911 498.459 127.887 504.081 123.669C510.171 119.101 512.909 106.489 512.909 106.489Z" fill="#F6A400"/>
</svg>
