<svg width="965" height="566" viewBox="0 0 965 566" fill="none" xmlns="http://www.w3.org/2000/svg">
<rect x="90.9117" y="81" width="804" height="398" rx="15" fill="#FFEBF0" stroke="#BD1F20" stroke-width="10"/>
<path d="M890.536 236.656L890.536 95.3967C890.536 89.8738 886.059 85.3967 880.536 85.3967L716.862 85.3969C716.862 85.3969 758.606 88.721 774.321 112.294C790.037 135.867 780.706 141.269 796.912 163.86C813.118 186.45 835.32 177.779 855.844 191.853C875.424 205.279 890.536 236.656 890.536 236.656Z" fill="#BD1F20"/>
<path d="M93.8367 461.907L93.8364 288.324C93.8364 288.324 94.5365 337.214 114.099 357.408C126.697 370.414 144.475 364.674 154.86 379.507C165.516 394.727 159.308 396.656 170.575 411.429C186.762 432.652 207.506 426.556 221.65 442.86C228.652 450.931 231.157 454.997 238.839 461.031C250.059 469.843 271.743 476.907 271.743 476.907L108.837 476.907C100.552 476.907 93.8367 470.191 93.8367 461.907Z" fill="#BD1F20"/>
</svg>
